solid OpenSCAD_Model
  facet normal 1 0 0
    outer loop
      vertex 0 25.4 93
      vertex 0 4 65
      vertex 0 25.4 0
    endloop
  endfacet
  facet normal 1 -0 0
    outer loop
      vertex 0 3 93
      vertex 0 4 65
      vertex 0 25.4 93
    endloop
  endfacet
  facet normal 1 0 0
    outer loop
      vertex 0 4 65
      vertex 0 3 93
      vertex 0 3 65
    endloop
  endfacet
  facet normal 1 0 0
    outer loop
      vertex 0 25.4 0
      vertex 0 4 65
      vertex 0 4 0
    endloop
  endfacet
  facet normal 1 -0 0
    outer loop
      vertex 0 3 65
      vertex 0 4 0
      vertex 0 4 65
    endloop
  endfacet
  facet normal 1 0 0
    outer loop
      vertex 0 0 0
      vertex 0 3 65
      vertex 0 0 65
    endloop
  endfacet
  facet normal 1 0 0
    outer loop
      vertex 0 3 65
      vertex 0 0 0
      vertex 0 4 0
    endloop
  endfacet
  facet normal 0 0 1
    outer loop
      vertex 0 25.4 93
      vertex -3 25.4 93
      vertex 0 3 93
    endloop
  endfacet
  facet normal -0 0 1
    outer loop
      vertex 0 3 93
      vertex 25.4 0 93
      vertex 25.4 3 93
    endloop
  endfacet
  facet normal 0 0 1
    outer loop
      vertex 0 3 93
      vertex -3 0 93
      vertex 25.4 0 93
    endloop
  endfacet
  facet normal 0 0 1
    outer loop
      vertex -3 0 93
      vertex 0 3 93
      vertex -3 25.4 93
    endloop
  endfacet
  facet normal 1 -0 0
    outer loop
      vertex 25.4 0 93
      vertex 25.4 3 65
      vertex 25.4 3 93
    endloop
  endfacet
  facet normal 1 0 0
    outer loop
      vertex 25.4 3 65
      vertex 25.4 0 93
      vertex 25.4 0 65
    endloop
  endfacet
  facet normal 0 0 -1
    outer loop
      vertex -3 0 0
      vertex 0 4 0
      vertex 0 0 0
    endloop
  endfacet
  facet normal 0 0 -1
    outer loop
      vertex 0 4 0
      vertex -3 25.4 0
      vertex 0 25.4 0
    endloop
  endfacet
  facet normal -0 0 -1
    outer loop
      vertex 0 4 0
      vertex -3 0 0
      vertex -3 25.4 0
    endloop
  endfacet
  facet normal 0 -1 0
    outer loop
      vertex 12.2006 0 85.9822
      vertex 25.4 0 93
      vertex -3 0 93
    endloop
  endfacet
  facet normal 0 -1 0
    outer loop
      vertex 25.4 0 93
      vertex 12.2006 0 85.9822
      vertex 12.7 0 86
    endloop
  endfacet
  facet normal 0 -1 0
    outer loop
      vertex -3 0 93
      vertex 11.7038 0 85.9287
      vertex 12.2006 0 85.9822
    endloop
  endfacet
  facet normal 0 -1 0
    outer loop
      vertex -3 0 93
      vertex 11.212 0 85.84
      vertex 11.7038 0 85.9287
    endloop
  endfacet
  facet normal 0 -1 0
    outer loop
      vertex -3 0 93
      vertex 10.7279 0 85.7165
      vertex 11.212 0 85.84
    endloop
  endfacet
  facet normal 0 -1 0
    outer loop
      vertex -3 0 93
      vertex 10.2537 0 85.5586
      vertex 10.7279 0 85.7165
    endloop
  endfacet
  facet normal 0 -1 0
    outer loop
      vertex -3 0 93
      vertex 9.79209 0 85.3674
      vertex 10.2537 0 85.5586
    endloop
  endfacet
  facet normal 0 -1 0
    outer loop
      vertex -3 0 93
      vertex 9.34526 0 85.1438
      vertex 9.79209 0 85.3674
    endloop
  endfacet
  facet normal 0 -1 0
    outer loop
      vertex -3 0 93
      vertex 8.91551 0 84.8888
      vertex 9.34526 0 85.1438
    endloop
  endfacet
  facet normal 0 -1 0
    outer loop
      vertex -3 0 93
      vertex 8.50506 0 84.6038
      vertex 8.91551 0 84.8888
    endloop
  endfacet
  facet normal 0 -1 0
    outer loop
      vertex -3 0 93
      vertex 8.11597 0 84.2902
      vertex 8.50506 0 84.6038
    endloop
  endfacet
  facet normal 0 -1 0
    outer loop
      vertex -3 0 93
      vertex 7.75025 0 83.9497
      vertex 8.11597 0 84.2902
    endloop
  endfacet
  facet normal 0 -1 0
    outer loop
      vertex -3 0 93
      vertex 7.40975 0 83.584
      vertex 7.75025 0 83.9497
    endloop
  endfacet
  facet normal 0 -1 0
    outer loop
      vertex -3 0 93
      vertex 7.09621 0 83.1949
      vertex 7.40975 0 83.584
    endloop
  endfacet
  facet normal 0 -1 0
    outer loop
      vertex -3 0 93
      vertex 6.81122 0 82.7845
      vertex 7.09621 0 83.1949
    endloop
  endfacet
  facet normal 0 -1 0
    outer loop
      vertex -3 0 93
      vertex 6.55625 0 82.3547
      vertex 6.81122 0 82.7845
    endloop
  endfacet
  facet normal 0 -1 0
    outer loop
      vertex -3 0 93
      vertex 6.33258 0 81.9079
      vertex 6.55625 0 82.3547
    endloop
  endfacet
  facet normal 0 -1 0
    outer loop
      vertex -3 0 93
      vertex 6.14135 0 81.4463
      vertex 6.33258 0 81.9079
    endloop
  endfacet
  facet normal 0 -1 0
    outer loop
      vertex -3 0 93
      vertex 5.98355 0 80.9721
      vertex 6.14135 0 81.4463
    endloop
  endfacet
  facet normal 0 -1 0
    outer loop
      vertex -3 0 93
      vertex 5.85997 0 80.488
      vertex 5.98355 0 80.9721
    endloop
  endfacet
  facet normal 0 -1 0
    outer loop
      vertex -3 0 93
      vertex 5.77125 0 79.9962
      vertex 5.85997 0 80.488
    endloop
  endfacet
  facet normal 0 -1 0
    outer loop
      vertex -3 0 93
      vertex 5.71783 0 79.4994
      vertex 5.77125 0 79.9962
    endloop
  endfacet
  facet normal 0 -1 0
    outer loop
      vertex -3 0 93
      vertex 5.7 0 79
      vertex 5.71783 0 79.4994
    endloop
  endfacet
  facet normal 0 -1 0
    outer loop
      vertex -3 0 93
      vertex 5.71783 0 78.5006
      vertex 5.7 0 79
    endloop
  endfacet
  facet normal 0 -1 0
    outer loop
      vertex 0 0 65
      vertex 5.71783 0 78.5006
      vertex -3 0 93
    endloop
  endfacet
  facet normal 0 -1 -0
    outer loop
      vertex 5.71783 0 78.5006
      vertex 0 0 65
      vertex 5.77125 0 78.0038
    endloop
  endfacet
  facet normal 0 -1 -0
    outer loop
      vertex 5.77125 0 78.0038
      vertex 0 0 65
      vertex 5.85997 0 77.512
    endloop
  endfacet
  facet normal 0 -1 -0
    outer loop
      vertex 5.85997 0 77.512
      vertex 0 0 65
      vertex 5.98355 0 77.0279
    endloop
  endfacet
  facet normal 0 -1 -0
    outer loop
      vertex 5.98355 0 77.0279
      vertex 0 0 65
      vertex 6.14135 0 76.5537
    endloop
  endfacet
  facet normal 0 -1 -0
    outer loop
      vertex 6.14135 0 76.5537
      vertex 0 0 65
      vertex 6.33258 0 76.0921
    endloop
  endfacet
  facet normal 0 -1 -0
    outer loop
      vertex 12.2006 0 72.0178
      vertex 0 0 65
      vertex 12.7 0 72
    endloop
  endfacet
  facet normal 0 -1 -0
    outer loop
      vertex 11.7038 0 72.0713
      vertex 0 0 65
      vertex 12.2006 0 72.0178
    endloop
  endfacet
  facet normal 0 -1 -0
    outer loop
      vertex 11.212 0 72.16
      vertex 0 0 65
      vertex 11.7038 0 72.0713
    endloop
  endfacet
  facet normal 0 -1 -0
    outer loop
      vertex 10.7279 0 72.2835
      vertex 0 0 65
      vertex 11.212 0 72.16
    endloop
  endfacet
  facet normal 0 -1 -0
    outer loop
      vertex 10.2537 0 72.4414
      vertex 0 0 65
      vertex 10.7279 0 72.2835
    endloop
  endfacet
  facet normal 0 -1 -0
    outer loop
      vertex 9.79209 0 72.6326
      vertex 0 0 65
      vertex 10.2537 0 72.4414
    endloop
  endfacet
  facet normal 0 -1 -0
    outer loop
      vertex 9.34526 0 72.8562
      vertex 0 0 65
      vertex 9.79209 0 72.6326
    endloop
  endfacet
  facet normal 0 -1 -0
    outer loop
      vertex 8.91551 0 73.1112
      vertex 0 0 65
      vertex 9.34526 0 72.8562
    endloop
  endfacet
  facet normal 0 -1 -0
    outer loop
      vertex 8.50506 0 73.3962
      vertex 0 0 65
      vertex 8.91551 0 73.1112
    endloop
  endfacet
  facet normal 0 -1 -0
    outer loop
      vertex 8.11597 0 73.7098
      vertex 0 0 65
      vertex 8.50506 0 73.3962
    endloop
  endfacet
  facet normal 0 -1 -0
    outer loop
      vertex 7.75025 0 74.0503
      vertex 0 0 65
      vertex 8.11597 0 73.7098
    endloop
  endfacet
  facet normal 0 -1 -0
    outer loop
      vertex 7.40975 0 74.416
      vertex 0 0 65
      vertex 7.75025 0 74.0503
    endloop
  endfacet
  facet normal 0 -1 -0
    outer loop
      vertex 7.09621 0 74.8051
      vertex 0 0 65
      vertex 7.40975 0 74.416
    endloop
  endfacet
  facet normal 0 -1 -0
    outer loop
      vertex 6.81122 0 75.2155
      vertex 0 0 65
      vertex 7.09621 0 74.8051
    endloop
  endfacet
  facet normal 0 -1 -0
    outer loop
      vertex 6.55625 0 75.6453
      vertex 0 0 65
      vertex 6.81122 0 75.2155
    endloop
  endfacet
  facet normal 0 -1 -0
    outer loop
      vertex 6.33258 0 76.0921
      vertex 0 0 65
      vertex 6.55625 0 75.6453
    endloop
  endfacet
  facet normal 0 -1 0
    outer loop
      vertex -3 0 0
      vertex 0 0 65
      vertex -3 0 93
    endloop
  endfacet
  facet normal 0 -1 -0
    outer loop
      vertex 0 0 65
      vertex -3 0 0
      vertex 0 0 0
    endloop
  endfacet
  facet normal 0 -1 0
    outer loop
      vertex 13.1994 0 85.9822
      vertex 25.4 0 93
      vertex 12.7 0 86
    endloop
  endfacet
  facet normal 0 -1 0
    outer loop
      vertex 13.6962 0 85.9287
      vertex 25.4 0 93
      vertex 13.1994 0 85.9822
    endloop
  endfacet
  facet normal 0 -1 0
    outer loop
      vertex 14.188 0 85.84
      vertex 25.4 0 93
      vertex 13.6962 0 85.9287
    endloop
  endfacet
  facet normal 0 -1 0
    outer loop
      vertex 14.6721 0 85.7165
      vertex 25.4 0 93
      vertex 14.188 0 85.84
    endloop
  endfacet
  facet normal 0 -1 0
    outer loop
      vertex 15.1462 0 85.5586
      vertex 25.4 0 93
      vertex 14.6721 0 85.7165
    endloop
  endfacet
  facet normal 0 -1 0
    outer loop
      vertex 15.6079 0 85.3674
      vertex 25.4 0 93
      vertex 15.1462 0 85.5586
    endloop
  endfacet
  facet normal 0 -1 0
    outer loop
      vertex 16.0547 0 85.1438
      vertex 25.4 0 93
      vertex 15.6079 0 85.3674
    endloop
  endfacet
  facet normal 0 -1 0
    outer loop
      vertex 16.4845 0 84.8888
      vertex 25.4 0 93
      vertex 16.0547 0 85.1438
    endloop
  endfacet
  facet normal 0 -1 0
    outer loop
      vertex 16.8949 0 84.6038
      vertex 25.4 0 93
      vertex 16.4845 0 84.8888
    endloop
  endfacet
  facet normal 0 -1 0
    outer loop
      vertex 17.284 0 84.2902
      vertex 25.4 0 93
      vertex 16.8949 0 84.6038
    endloop
  endfacet
  facet normal 0 -1 0
    outer loop
      vertex 17.6497 0 83.9497
      vertex 25.4 0 93
      vertex 17.284 0 84.2902
    endloop
  endfacet
  facet normal 0 -1 0
    outer loop
      vertex 17.9902 0 83.584
      vertex 25.4 0 93
      vertex 17.6497 0 83.9497
    endloop
  endfacet
  facet normal 0 -1 0
    outer loop
      vertex 18.3038 0 83.1949
      vertex 25.4 0 93
      vertex 17.9902 0 83.584
    endloop
  endfacet
  facet normal 0 -1 0
    outer loop
      vertex 18.5888 0 82.7845
      vertex 25.4 0 93
      vertex 18.3038 0 83.1949
    endloop
  endfacet
  facet normal 0 -1 0
    outer loop
      vertex 18.8438 0 82.3547
      vertex 25.4 0 93
      vertex 18.5888 0 82.7845
    endloop
  endfacet
  facet normal 0 -1 0
    outer loop
      vertex 19.0674 0 81.9079
      vertex 25.4 0 93
      vertex 18.8438 0 82.3547
    endloop
  endfacet
  facet normal 0 -1 0
    outer loop
      vertex 19.2586 0 81.4463
      vertex 25.4 0 93
      vertex 19.0674 0 81.9079
    endloop
  endfacet
  facet normal 0 -1 0
    outer loop
      vertex 19.4165 0 80.9721
      vertex 25.4 0 93
      vertex 19.2586 0 81.4463
    endloop
  endfacet
  facet normal 0 -1 0
    outer loop
      vertex 19.54 0 80.488
      vertex 25.4 0 93
      vertex 19.4165 0 80.9721
    endloop
  endfacet
  facet normal 0 -1 0
    outer loop
      vertex 19.6287 0 79.9962
      vertex 25.4 0 93
      vertex 19.54 0 80.488
    endloop
  endfacet
  facet normal 0 -1 0
    outer loop
      vertex 19.6822 0 79.4994
      vertex 25.4 0 93
      vertex 19.6287 0 79.9962
    endloop
  endfacet
  facet normal 0 -1 0
    outer loop
      vertex 19.7 0 79
      vertex 25.4 0 93
      vertex 19.6822 0 79.4994
    endloop
  endfacet
  facet normal 0 -1 0
    outer loop
      vertex 25.4 0 65
      vertex 19.7 0 79
      vertex 19.6822 0 78.5006
    endloop
  endfacet
  facet normal 0 -1 0
    outer loop
      vertex 25.4 0 65
      vertex 19.6822 0 78.5006
      vertex 19.6287 0 78.0038
    endloop
  endfacet
  facet normal 0 -1 0
    outer loop
      vertex 25.4 0 65
      vertex 19.6287 0 78.0038
      vertex 19.54 0 77.512
    endloop
  endfacet
  facet normal 0 -1 0
    outer loop
      vertex 25.4 0 65
      vertex 19.54 0 77.512
      vertex 19.4165 0 77.0279
    endloop
  endfacet
  facet normal 0 -1 0
    outer loop
      vertex 25.4 0 65
      vertex 19.4165 0 77.0279
      vertex 19.2586 0 76.5537
    endloop
  endfacet
  facet normal 0 -1 0
    outer loop
      vertex 25.4 0 65
      vertex 12.7 0 72
      vertex 0 0 65
    endloop
  endfacet
  facet normal 0 -1 0
    outer loop
      vertex 12.7 0 72
      vertex 25.4 0 65
      vertex 13.1994 0 72.0178
    endloop
  endfacet
  facet normal 0 -1 0
    outer loop
      vertex 13.1994 0 72.0178
      vertex 25.4 0 65
      vertex 13.6962 0 72.0713
    endloop
  endfacet
  facet normal 0 -1 0
    outer loop
      vertex 13.6962 0 72.0713
      vertex 25.4 0 65
      vertex 14.188 0 72.16
    endloop
  endfacet
  facet normal 0 -1 0
    outer loop
      vertex 14.188 0 72.16
      vertex 25.4 0 65
      vertex 14.6721 0 72.2835
    endloop
  endfacet
  facet normal 0 -1 0
    outer loop
      vertex 14.6721 0 72.2835
      vertex 25.4 0 65
      vertex 15.1462 0 72.4414
    endloop
  endfacet
  facet normal 0 -1 0
    outer loop
      vertex 19.7 0 79
      vertex 25.4 0 65
      vertex 25.4 0 93
    endloop
  endfacet
  facet normal 0 -1 0
    outer loop
      vertex 19.0674 0 76.0921
      vertex 25.4 0 65
      vertex 19.2586 0 76.5537
    endloop
  endfacet
  facet normal 0 -1 0
    outer loop
      vertex 18.8438 0 75.6453
      vertex 25.4 0 65
      vertex 19.0674 0 76.0921
    endloop
  endfacet
  facet normal 0 -1 0
    outer loop
      vertex 18.5888 0 75.2155
      vertex 25.4 0 65
      vertex 18.8438 0 75.6453
    endloop
  endfacet
  facet normal 0 -1 0
    outer loop
      vertex 18.3038 0 74.8051
      vertex 25.4 0 65
      vertex 18.5888 0 75.2155
    endloop
  endfacet
  facet normal 0 -1 0
    outer loop
      vertex 17.9902 0 74.416
      vertex 25.4 0 65
      vertex 18.3038 0 74.8051
    endloop
  endfacet
  facet normal 0 -1 0
    outer loop
      vertex 17.6497 0 74.0503
      vertex 25.4 0 65
      vertex 17.9902 0 74.416
    endloop
  endfacet
  facet normal 0 -1 0
    outer loop
      vertex 17.284 0 73.7098
      vertex 25.4 0 65
      vertex 17.6497 0 74.0503
    endloop
  endfacet
  facet normal 0 -1 0
    outer loop
      vertex 16.8949 0 73.3962
      vertex 25.4 0 65
      vertex 17.284 0 73.7098
    endloop
  endfacet
  facet normal 0 -1 0
    outer loop
      vertex 16.4845 0 73.1112
      vertex 25.4 0 65
      vertex 16.8949 0 73.3962
    endloop
  endfacet
  facet normal 0 -1 0
    outer loop
      vertex 16.0547 0 72.8562
      vertex 25.4 0 65
      vertex 16.4845 0 73.1112
    endloop
  endfacet
  facet normal 0 -1 0
    outer loop
      vertex 15.6079 0 72.6326
      vertex 25.4 0 65
      vertex 16.0547 0 72.8562
    endloop
  endfacet
  facet normal 0 -1 0
    outer loop
      vertex 15.1462 0 72.4414
      vertex 25.4 0 65
      vertex 15.6079 0 72.6326
    endloop
  endfacet
  facet normal 0 1 0
    outer loop
      vertex 25.4 3 93
      vertex 12.7 3 86
      vertex 0 3 93
    endloop
  endfacet
  facet normal 0 1 0
    outer loop
      vertex 25.4 3 93
      vertex 13.1994 3 85.9822
      vertex 12.7 3 86
    endloop
  endfacet
  facet normal 0 1 0
    outer loop
      vertex 25.4 3 93
      vertex 13.6962 3 85.9287
      vertex 13.1994 3 85.9822
    endloop
  endfacet
  facet normal 0 1 0
    outer loop
      vertex 25.4 3 93
      vertex 14.188 3 85.84
      vertex 13.6962 3 85.9287
    endloop
  endfacet
  facet normal 0 1 0
    outer loop
      vertex 25.4 3 93
      vertex 14.6721 3 85.7165
      vertex 14.188 3 85.84
    endloop
  endfacet
  facet normal 0 1 0
    outer loop
      vertex 25.4 3 93
      vertex 15.1462 3 85.5586
      vertex 14.6721 3 85.7165
    endloop
  endfacet
  facet normal 0 1 0
    outer loop
      vertex 25.4 3 93
      vertex 15.6079 3 85.3674
      vertex 15.1462 3 85.5586
    endloop
  endfacet
  facet normal 0 1 0
    outer loop
      vertex 25.4 3 93
      vertex 16.0547 3 85.1438
      vertex 15.6079 3 85.3674
    endloop
  endfacet
  facet normal 0 1 0
    outer loop
      vertex 25.4 3 93
      vertex 16.4845 3 84.8888
      vertex 16.0547 3 85.1438
    endloop
  endfacet
  facet normal 0 1 0
    outer loop
      vertex 25.4 3 93
      vertex 16.8949 3 84.6038
      vertex 16.4845 3 84.8888
    endloop
  endfacet
  facet normal 0 1 0
    outer loop
      vertex 25.4 3 93
      vertex 17.284 3 84.2902
      vertex 16.8949 3 84.6038
    endloop
  endfacet
  facet normal 0 1 0
    outer loop
      vertex 25.4 3 93
      vertex 17.6497 3 83.9497
      vertex 17.284 3 84.2902
    endloop
  endfacet
  facet normal 0 1 0
    outer loop
      vertex 25.4 3 93
      vertex 17.9902 3 83.584
      vertex 17.6497 3 83.9497
    endloop
  endfacet
  facet normal 0 1 0
    outer loop
      vertex 25.4 3 93
      vertex 18.3038 3 83.1949
      vertex 17.9902 3 83.584
    endloop
  endfacet
  facet normal 0 1 0
    outer loop
      vertex 25.4 3 93
      vertex 18.5888 3 82.7845
      vertex 18.3038 3 83.1949
    endloop
  endfacet
  facet normal 0 1 0
    outer loop
      vertex 25.4 3 93
      vertex 18.8438 3 82.3547
      vertex 18.5888 3 82.7845
    endloop
  endfacet
  facet normal 0 1 0
    outer loop
      vertex 25.4 3 93
      vertex 19.0674 3 81.9079
      vertex 18.8438 3 82.3547
    endloop
  endfacet
  facet normal 0 1 0
    outer loop
      vertex 25.4 3 93
      vertex 19.2586 3 81.4463
      vertex 19.0674 3 81.9079
    endloop
  endfacet
  facet normal 0 1 0
    outer loop
      vertex 25.4 3 93
      vertex 19.4165 3 80.9721
      vertex 19.2586 3 81.4463
    endloop
  endfacet
  facet normal 0 1 0
    outer loop
      vertex 25.4 3 93
      vertex 19.54 3 80.488
      vertex 19.4165 3 80.9721
    endloop
  endfacet
  facet normal 0 1 0
    outer loop
      vertex 25.4 3 93
      vertex 19.6287 3 79.9962
      vertex 19.54 3 80.488
    endloop
  endfacet
  facet normal 0 1 0
    outer loop
      vertex 25.4 3 93
      vertex 19.6822 3 79.4994
      vertex 19.6287 3 79.9962
    endloop
  endfacet
  facet normal 0 1 0
    outer loop
      vertex 25.4 3 93
      vertex 19.7 3 79
      vertex 19.6822 3 79.4994
    endloop
  endfacet
  facet normal 0 1 -0
    outer loop
      vertex 25.4 3 65
      vertex 19.7 3 79
      vertex 25.4 3 93
    endloop
  endfacet
  facet normal 0 1 0
    outer loop
      vertex 19.7 3 79
      vertex 25.4 3 65
      vertex 19.6822 3 78.5006
    endloop
  endfacet
  facet normal 0 1 0
    outer loop
      vertex 19.6822 3 78.5006
      vertex 25.4 3 65
      vertex 19.6287 3 78.0038
    endloop
  endfacet
  facet normal 0 1 0
    outer loop
      vertex 19.6287 3 78.0038
      vertex 25.4 3 65
      vertex 19.54 3 77.512
    endloop
  endfacet
  facet normal 0 1 0
    outer loop
      vertex 19.54 3 77.512
      vertex 25.4 3 65
      vertex 19.4165 3 77.0279
    endloop
  endfacet
  facet normal 0 1 0
    outer loop
      vertex 13.1994 3 72.0178
      vertex 25.4 3 65
      vertex 12.7 3 72
    endloop
  endfacet
  facet normal 0 1 0
    outer loop
      vertex 13.6962 3 72.0713
      vertex 25.4 3 65
      vertex 13.1994 3 72.0178
    endloop
  endfacet
  facet normal 0 1 0
    outer loop
      vertex 14.188 3 72.16
      vertex 25.4 3 65
      vertex 13.6962 3 72.0713
    endloop
  endfacet
  facet normal 0 1 0
    outer loop
      vertex 14.6721 3 72.2835
      vertex 25.4 3 65
      vertex 14.188 3 72.16
    endloop
  endfacet
  facet normal 0 1 0
    outer loop
      vertex 15.1462 3 72.4414
      vertex 25.4 3 65
      vertex 14.6721 3 72.2835
    endloop
  endfacet
  facet normal 0 1 0
    outer loop
      vertex 15.6079 3 72.6326
      vertex 25.4 3 65
      vertex 15.1462 3 72.4414
    endloop
  endfacet
  facet normal 0 1 0
    outer loop
      vertex 16.0547 3 72.8562
      vertex 25.4 3 65
      vertex 15.6079 3 72.6326
    endloop
  endfacet
  facet normal 0 1 0
    outer loop
      vertex 16.4845 3 73.1112
      vertex 25.4 3 65
      vertex 16.0547 3 72.8562
    endloop
  endfacet
  facet normal 0 1 0
    outer loop
      vertex 16.8949 3 73.3962
      vertex 25.4 3 65
      vertex 16.4845 3 73.1112
    endloop
  endfacet
  facet normal 0 1 0
    outer loop
      vertex 17.284 3 73.7098
      vertex 25.4 3 65
      vertex 16.8949 3 73.3962
    endloop
  endfacet
  facet normal 0 1 0
    outer loop
      vertex 17.6497 3 74.0503
      vertex 25.4 3 65
      vertex 17.284 3 73.7098
    endloop
  endfacet
  facet normal 0 1 0
    outer loop
      vertex 17.9902 3 74.416
      vertex 25.4 3 65
      vertex 17.6497 3 74.0503
    endloop
  endfacet
  facet normal 0 1 0
    outer loop
      vertex 18.3038 3 74.8051
      vertex 25.4 3 65
      vertex 17.9902 3 74.416
    endloop
  endfacet
  facet normal 0 1 0
    outer loop
      vertex 18.5888 3 75.2155
      vertex 25.4 3 65
      vertex 18.3038 3 74.8051
    endloop
  endfacet
  facet normal 0 1 0
    outer loop
      vertex 18.8438 3 75.6453
      vertex 25.4 3 65
      vertex 18.5888 3 75.2155
    endloop
  endfacet
  facet normal 0 1 0
    outer loop
      vertex 19.0674 3 76.0921
      vertex 25.4 3 65
      vertex 18.8438 3 75.6453
    endloop
  endfacet
  facet normal 0 1 0
    outer loop
      vertex 19.2586 3 76.5537
      vertex 25.4 3 65
      vertex 19.0674 3 76.0921
    endloop
  endfacet
  facet normal 0 1 0
    outer loop
      vertex 19.4165 3 77.0279
      vertex 25.4 3 65
      vertex 19.2586 3 76.5537
    endloop
  endfacet
  facet normal 0 1 -0
    outer loop
      vertex 12.2006 3 85.9822
      vertex 0 3 93
      vertex 12.7 3 86
    endloop
  endfacet
  facet normal 0 1 -0
    outer loop
      vertex 11.7038 3 85.9287
      vertex 0 3 93
      vertex 12.2006 3 85.9822
    endloop
  endfacet
  facet normal 0 1 -0
    outer loop
      vertex 11.212 3 85.84
      vertex 0 3 93
      vertex 11.7038 3 85.9287
    endloop
  endfacet
  facet normal 0 1 -0
    outer loop
      vertex 10.7279 3 85.7165
      vertex 0 3 93
      vertex 11.212 3 85.84
    endloop
  endfacet
  facet normal 0 1 -0
    outer loop
      vertex 10.2537 3 85.5586
      vertex 0 3 93
      vertex 10.7279 3 85.7165
    endloop
  endfacet
  facet normal 0 1 -0
    outer loop
      vertex 9.79209 3 85.3674
      vertex 0 3 93
      vertex 10.2537 3 85.5586
    endloop
  endfacet
  facet normal 0 1 -0
    outer loop
      vertex 9.34526 3 85.1438
      vertex 0 3 93
      vertex 9.79209 3 85.3674
    endloop
  endfacet
  facet normal 0 1 -0
    outer loop
      vertex 8.91551 3 84.8888
      vertex 0 3 93
      vertex 9.34526 3 85.1438
    endloop
  endfacet
  facet normal 0 1 -0
    outer loop
      vertex 8.50506 3 84.6038
      vertex 0 3 93
      vertex 8.91551 3 84.8888
    endloop
  endfacet
  facet normal 0 1 -0
    outer loop
      vertex 8.11597 3 84.2902
      vertex 0 3 93
      vertex 8.50506 3 84.6038
    endloop
  endfacet
  facet normal 0 1 -0
    outer loop
      vertex 7.75025 3 83.9497
      vertex 0 3 93
      vertex 8.11597 3 84.2902
    endloop
  endfacet
  facet normal 0 1 -0
    outer loop
      vertex 7.40975 3 83.584
      vertex 0 3 93
      vertex 7.75025 3 83.9497
    endloop
  endfacet
  facet normal 0 1 -0
    outer loop
      vertex 7.09621 3 83.1949
      vertex 0 3 93
      vertex 7.40975 3 83.584
    endloop
  endfacet
  facet normal 0 1 -0
    outer loop
      vertex 6.81122 3 82.7845
      vertex 0 3 93
      vertex 7.09621 3 83.1949
    endloop
  endfacet
  facet normal 0 1 -0
    outer loop
      vertex 6.55625 3 82.3547
      vertex 0 3 93
      vertex 6.81122 3 82.7845
    endloop
  endfacet
  facet normal 0 1 -0
    outer loop
      vertex 6.33258 3 81.9079
      vertex 0 3 93
      vertex 6.55625 3 82.3547
    endloop
  endfacet
  facet normal 0 1 -0
    outer loop
      vertex 6.14135 3 81.4463
      vertex 0 3 93
      vertex 6.33258 3 81.9079
    endloop
  endfacet
  facet normal 0 1 -0
    outer loop
      vertex 5.98355 3 80.9721
      vertex 0 3 93
      vertex 6.14135 3 81.4463
    endloop
  endfacet
  facet normal 0 1 -0
    outer loop
      vertex 5.85997 3 80.488
      vertex 0 3 93
      vertex 5.98355 3 80.9721
    endloop
  endfacet
  facet normal 0 1 -0
    outer loop
      vertex 5.77125 3 79.9962
      vertex 0 3 93
      vertex 5.85997 3 80.488
    endloop
  endfacet
  facet normal 0 1 -0
    outer loop
      vertex 5.71783 3 79.4994
      vertex 0 3 93
      vertex 5.77125 3 79.9962
    endloop
  endfacet
  facet normal 0 1 -0
    outer loop
      vertex 5.7 3 79
      vertex 0 3 93
      vertex 5.71783 3 79.4994
    endloop
  endfacet
  facet normal 0 1 0
    outer loop
      vertex 0 3 65
      vertex 5.7 3 79
      vertex 5.71783 3 78.5006
    endloop
  endfacet
  facet normal 0 1 0
    outer loop
      vertex 0 3 65
      vertex 5.71783 3 78.5006
      vertex 5.77125 3 78.0038
    endloop
  endfacet
  facet normal 0 1 0
    outer loop
      vertex 0 3 65
      vertex 5.77125 3 78.0038
      vertex 5.85997 3 77.512
    endloop
  endfacet
  facet normal 0 1 0
    outer loop
      vertex 0 3 65
      vertex 5.85997 3 77.512
      vertex 5.98355 3 77.0279
    endloop
  endfacet
  facet normal 0 1 0
    outer loop
      vertex 0 3 65
      vertex 5.98355 3 77.0279
      vertex 6.14135 3 76.5537
    endloop
  endfacet
  facet normal 0 1 0
    outer loop
      vertex 0 3 65
      vertex 12.7 3 72
      vertex 25.4 3 65
    endloop
  endfacet
  facet normal 0 1 0
    outer loop
      vertex 12.7 3 72
      vertex 0 3 65
      vertex 12.2006 3 72.0178
    endloop
  endfacet
  facet normal 0 1 0
    outer loop
      vertex 12.2006 3 72.0178
      vertex 0 3 65
      vertex 11.7038 3 72.0713
    endloop
  endfacet
  facet normal 0 1 0
    outer loop
      vertex 11.7038 3 72.0713
      vertex 0 3 65
      vertex 11.212 3 72.16
    endloop
  endfacet
  facet normal 0 1 0
    outer loop
      vertex 11.212 3 72.16
      vertex 0 3 65
      vertex 10.7279 3 72.2835
    endloop
  endfacet
  facet normal 0 1 0
    outer loop
      vertex 10.7279 3 72.2835
      vertex 0 3 65
      vertex 10.2537 3 72.4414
    endloop
  endfacet
  facet normal 0 1 0
    outer loop
      vertex 5.7 3 79
      vertex 0 3 65
      vertex 0 3 93
    endloop
  endfacet
  facet normal 0 1 0
    outer loop
      vertex 6.33258 3 76.0921
      vertex 0 3 65
      vertex 6.14135 3 76.5537
    endloop
  endfacet
  facet normal 0 1 0
    outer loop
      vertex 6.55625 3 75.6453
      vertex 0 3 65
      vertex 6.33258 3 76.0921
    endloop
  endfacet
  facet normal 0 1 0
    outer loop
      vertex 6.81122 3 75.2155
      vertex 0 3 65
      vertex 6.55625 3 75.6453
    endloop
  endfacet
  facet normal 0 1 0
    outer loop
      vertex 7.09621 3 74.8051
      vertex 0 3 65
      vertex 6.81122 3 75.2155
    endloop
  endfacet
  facet normal 0 1 0
    outer loop
      vertex 7.40975 3 74.416
      vertex 0 3 65
      vertex 7.09621 3 74.8051
    endloop
  endfacet
  facet normal 0 1 0
    outer loop
      vertex 7.75025 3 74.0503
      vertex 0 3 65
      vertex 7.40975 3 74.416
    endloop
  endfacet
  facet normal 0 1 0
    outer loop
      vertex 8.11597 3 73.7098
      vertex 0 3 65
      vertex 7.75025 3 74.0503
    endloop
  endfacet
  facet normal 0 1 0
    outer loop
      vertex 8.50506 3 73.3962
      vertex 0 3 65
      vertex 8.11597 3 73.7098
    endloop
  endfacet
  facet normal 0 1 0
    outer loop
      vertex 8.91551 3 73.1112
      vertex 0 3 65
      vertex 8.50506 3 73.3962
    endloop
  endfacet
  facet normal 0 1 0
    outer loop
      vertex 9.34526 3 72.8562
      vertex 0 3 65
      vertex 8.91551 3 73.1112
    endloop
  endfacet
  facet normal 0 1 0
    outer loop
      vertex 9.79209 3 72.6326
      vertex 0 3 65
      vertex 9.34526 3 72.8562
    endloop
  endfacet
  facet normal 0 1 0
    outer loop
      vertex 10.2537 3 72.4414
      vertex 0 3 65
      vertex 9.79209 3 72.6326
    endloop
  endfacet
  facet normal 0 1 -0
    outer loop
      vertex 0 25.4 0
      vertex -3 25.4 93
      vertex 0 25.4 93
    endloop
  endfacet
  facet normal 0 1 0
    outer loop
      vertex -3 25.4 93
      vertex 0 25.4 0
      vertex -3 25.4 0
    endloop
  endfacet
  facet normal -1 0 0
    outer loop
      vertex -3 0 0
      vertex -3 25.4 93
      vertex -3 25.4 0
    endloop
  endfacet
  facet normal -1 -0 0
    outer loop
      vertex -3 25.4 93
      vertex -3 0 0
      vertex -3 0 93
    endloop
  endfacet
  facet normal 0 0 -1
    outer loop
      vertex 0 0 65
      vertex 25.4 3 65
      vertex 25.4 0 65
    endloop
  endfacet
  facet normal -0 0 -1
    outer loop
      vertex 25.4 3 65
      vertex 0 0 65
      vertex 0 3 65
    endloop
  endfacet
  facet normal 0.999363 0 -0.0356801
    outer loop
      vertex 5.71783 0 79.4994
      vertex 5.7 3 79
      vertex 5.71783 3 79.4994
    endloop
  endfacet
  facet normal 0.999363 0 -0.0356801
    outer loop
      vertex 5.7 3 79
      vertex 5.71783 0 79.4994
      vertex 5.7 0 79
    endloop
  endfacet
  facet normal 0.627531 0 0.778591
    outer loop
      vertex 8.11597 3 73.7098
      vertex 8.50506 0 73.3962
      vertex 8.50506 3 73.3962
    endloop
  endfacet
  facet normal 0.627531 0 0.778591
    outer loop
      vertex 8.50506 0 73.3962
      vertex 8.11597 3 73.7098
      vertex 8.11597 0 73.7098
    endloop
  endfacet
  facet normal 0.994268 -0 0.106912
    outer loop
      vertex 5.71783 0 78.5006
      vertex 5.77125 3 78.0038
      vertex 5.71783 3 78.5006
    endloop
  endfacet
  facet normal 0.994268 0 0.106912
    outer loop
      vertex 5.77125 3 78.0038
      vertex 5.71783 0 78.5006
      vertex 5.77125 0 78.0038
    endloop
  endfacet
  facet normal 0.382675 0 0.923883
    outer loop
      vertex 9.79209 3 72.6326
      vertex 10.2537 0 72.4414
      vertex 10.2537 3 72.4414
    endloop
  endfacet
  facet normal 0.382675 0 0.923883
    outer loop
      vertex 10.2537 0 72.4414
      vertex 9.79209 3 72.6326
      vertex 9.79209 0 72.6326
    endloop
  endfacet
  facet normal 0.984115 -0 0.177533
    outer loop
      vertex 5.77125 0 78.0038
      vertex 5.85997 3 77.512
      vertex 5.77125 3 78.0038
    endloop
  endfacet
  facet normal 0.984115 0 0.177533
    outer loop
      vertex 5.85997 3 77.512
      vertex 5.77125 0 78.0038
      vertex 5.85997 0 77.512
    endloop
  endfacet
  facet normal 0.10707 0 0.994251
    outer loop
      vertex 11.7038 3 72.0713
      vertex 12.2006 0 72.0178
      vertex 12.2006 3 72.0178
    endloop
  endfacet
  facet normal 0.10707 0 0.994251
    outer loop
      vertex 12.2006 0 72.0178
      vertex 11.7038 3 72.0713
      vertex 11.7038 0 72.0713
    endloop
  endfacet
  facet normal 0.923859 -0 0.382733
    outer loop
      vertex 6.14135 0 76.5537
      vertex 6.33258 3 76.0921
      vertex 6.14135 3 76.5537
    endloop
  endfacet
  facet normal 0.923859 0 0.382733
    outer loop
      vertex 6.33258 3 76.0921
      vertex 6.14135 0 76.5537
      vertex 6.33258 0 76.0921
    endloop
  endfacet
  facet normal 0.894211 -0 0.447646
    outer loop
      vertex 6.33258 0 76.0921
      vertex 6.55625 3 75.6453
      vertex 6.33258 3 76.0921
    endloop
  endfacet
  facet normal 0.894211 0 0.447646
    outer loop
      vertex 6.55625 3 75.6453
      vertex 6.33258 0 76.0921
      vertex 6.55625 0 75.6453
    endloop
  endfacet
  facet normal 0.821379 -0 0.570382
    outer loop
      vertex 6.81122 0 75.2155
      vertex 7.09621 3 74.8051
      vertex 6.81122 3 75.2155
    endloop
  endfacet
  facet normal 0.821379 0 0.570382
    outer loop
      vertex 7.09621 3 74.8051
      vertex 6.81122 0 75.2155
      vertex 7.09621 0 74.8051
    endloop
  endfacet
  facet normal 0.948843 -0 0.315748
    outer loop
      vertex 5.98355 0 77.0279
      vertex 6.14135 3 76.5537
      vertex 5.98355 3 77.0279
    endloop
  endfacet
  facet normal 0.948843 0 0.315748
    outer loop
      vertex 6.14135 3 76.5537
      vertex 5.98355 0 77.0279
      vertex 6.14135 0 76.5537
    endloop
  endfacet
  facet normal 0.44751 0 0.894279
    outer loop
      vertex 9.34526 3 72.8562
      vertex 9.79209 0 72.6326
      vertex 9.79209 3 72.6326
    endloop
  endfacet
  facet normal 0.44751 0 0.894279
    outer loop
      vertex 9.79209 0 72.6326
      vertex 9.34526 3 72.8562
      vertex 9.34526 0 72.8562
    endloop
  endfacet
  facet normal 0.731873 -0 0.681441
    outer loop
      vertex 7.40975 0 74.416
      vertex 7.75025 3 74.0503
      vertex 7.40975 3 74.416
    endloop
  endfacet
  facet normal 0.731873 0 0.681441
    outer loop
      vertex 7.75025 3 74.0503
      vertex 7.40975 0 74.416
      vertex 7.75025 0 74.0503
    endloop
  endfacet
  facet normal 0.999363 -0 0.0356801
    outer loop
      vertex 5.7 0 79
      vertex 5.71783 3 78.5006
      vertex 5.7 3 79
    endloop
  endfacet
  facet normal 0.999363 0 0.0356801
    outer loop
      vertex 5.71783 3 78.5006
      vertex 5.7 0 79
      vertex 5.71783 0 78.5006
    endloop
  endfacet
  facet normal 0.315928 0 0.948783
    outer loop
      vertex 10.2537 3 72.4414
      vertex 10.7279 0 72.2835
      vertex 10.7279 3 72.2835
    endloop
  endfacet
  facet normal 0.315928 0 0.948783
    outer loop
      vertex 10.7279 0 72.2835
      vertex 10.2537 3 72.4414
      vertex 10.2537 0 72.4414
    endloop
  endfacet
  facet normal 0.177494 0 0.984122
    outer loop
      vertex 11.212 3 72.16
      vertex 11.7038 0 72.0713
      vertex 11.7038 3 72.0713
    endloop
  endfacet
  facet normal 0.177494 0 0.984122
    outer loop
      vertex 11.7038 0 72.0713
      vertex 11.212 3 72.16
      vertex 11.212 0 72.16
    endloop
  endfacet
  facet normal -0.999365 0 0.0356202
    outer loop
      vertex 19.6822 0 78.5006
      vertex 19.7 3 79
      vertex 19.6822 3 78.5006
    endloop
  endfacet
  facet normal -0.999365 0 0.0356202
    outer loop
      vertex 19.7 3 79
      vertex 19.6822 0 78.5006
      vertex 19.7 0 79
    endloop
  endfacet
  facet normal -0.447534 0 -0.894267
    outer loop
      vertex 15.6079 0 85.3674
      vertex 16.0547 3 85.1438
      vertex 16.0547 0 85.1438
    endloop
  endfacet
  facet normal -0.447534 0 -0.894267
    outer loop
      vertex 16.0547 3 85.1438
      vertex 15.6079 0 85.3674
      vertex 15.6079 3 85.3674
    endloop
  endfacet
  facet normal 0.994268 0 -0.106912
    outer loop
      vertex 5.77125 0 79.9962
      vertex 5.71783 3 79.4994
      vertex 5.77125 3 79.9962
    endloop
  endfacet
  facet normal 0.994268 0 -0.106912
    outer loop
      vertex 5.71783 3 79.4994
      vertex 5.77125 0 79.9962
      vertex 5.71783 0 79.4994
    endloop
  endfacet
  facet normal 0.968927 0 -0.247346
    outer loop
      vertex 5.98355 0 80.9721
      vertex 5.85997 3 80.488
      vertex 5.98355 3 80.9721
    endloop
  endfacet
  facet normal 0.968927 0 -0.247346
    outer loop
      vertex 5.85997 3 80.488
      vertex 5.98355 0 80.9721
      vertex 5.85997 0 80.488
    endloop
  endfacet
  facet normal 0.10707 0 -0.994251
    outer loop
      vertex 11.7038 0 85.9287
      vertex 12.2006 3 85.9822
      vertex 12.2006 0 85.9822
    endloop
  endfacet
  facet normal 0.10707 0 -0.994251
    outer loop
      vertex 12.2006 3 85.9822
      vertex 11.7038 0 85.9287
      vertex 11.7038 3 85.9287
    endloop
  endfacet
  facet normal -0.731873 0 -0.681441
    outer loop
      vertex 17.9902 0 83.584
      vertex 17.6497 3 83.9497
      vertex 17.9902 3 83.584
    endloop
  endfacet
  facet normal -0.731873 -0 -0.681441
    outer loop
      vertex 17.6497 3 83.9497
      vertex 17.9902 0 83.584
      vertex 17.6497 0 83.9497
    endloop
  endfacet
  facet normal -0.315988 0 0.948763
    outer loop
      vertex 14.6721 3 72.2835
      vertex 15.1462 0 72.4414
      vertex 15.1462 3 72.4414
    endloop
  endfacet
  facet normal -0.315988 0 0.948763
    outer loop
      vertex 15.1462 0 72.4414
      vertex 14.6721 3 72.2835
      vertex 14.6721 0 72.2835
    endloop
  endfacet
  facet normal -0.681441 0 0.731873
    outer loop
      vertex 17.284 3 73.7098
      vertex 17.6497 0 74.0503
      vertex 17.6497 3 74.0503
    endloop
  endfacet
  facet normal -0.681441 0 0.731873
    outer loop
      vertex 17.6497 0 74.0503
      vertex 17.284 3 73.7098
      vertex 17.284 0 73.7098
    endloop
  endfacet
  facet normal 0.860051 -0 0.510208
    outer loop
      vertex 6.55625 0 75.6453
      vertex 6.81122 3 75.2155
      vertex 6.55625 3 75.6453
    endloop
  endfacet
  facet normal 0.860051 0 0.510208
    outer loop
      vertex 6.81122 3 75.2155
      vertex 6.55625 0 75.6453
      vertex 6.81122 0 75.2155
    endloop
  endfacet
  facet normal 0.778658 -0 0.627449
    outer loop
      vertex 7.09621 0 74.8051
      vertex 7.40975 3 74.416
      vertex 7.09621 3 74.8051
    endloop
  endfacet
  facet normal 0.778658 0 0.627449
    outer loop
      vertex 7.40975 3 74.416
      vertex 7.09621 0 74.8051
      vertex 7.40975 0 74.416
    endloop
  endfacet
  facet normal 0.968927 -0 0.247346
    outer loop
      vertex 5.85997 0 77.512
      vertex 5.98355 3 77.0279
      vertex 5.85997 3 77.512
    endloop
  endfacet
  facet normal 0.968927 0 0.247346
    outer loop
      vertex 5.98355 3 77.0279
      vertex 5.85997 0 77.512
      vertex 5.98355 0 77.0279
    endloop
  endfacet
  facet normal 0.570349 0 0.821403
    outer loop
      vertex 8.50506 3 73.3962
      vertex 8.91551 0 73.1112
      vertex 8.91551 3 73.1112
    endloop
  endfacet
  facet normal 0.570349 0 0.821403
    outer loop
      vertex 8.91551 0 73.1112
      vertex 8.50506 3 73.3962
      vertex 8.50506 0 73.3962
    endloop
  endfacet
  facet normal 0.681421 0 0.731892
    outer loop
      vertex 7.75025 3 74.0503
      vertex 8.11597 0 73.7098
      vertex 8.11597 3 73.7098
    endloop
  endfacet
  facet normal 0.681421 0 0.731892
    outer loop
      vertex 8.11597 0 73.7098
      vertex 7.75025 3 74.0503
      vertex 7.75025 0 74.0503
    endloop
  endfacet
  facet normal 0.510296 0 0.859999
    outer loop
      vertex 8.91551 3 73.1112
      vertex 9.34526 0 72.8562
      vertex 9.34526 3 72.8562
    endloop
  endfacet
  facet normal 0.510296 0 0.859999
    outer loop
      vertex 9.34526 0 72.8562
      vertex 8.91551 3 73.1112
      vertex 8.91551 0 73.1112
    endloop
  endfacet
  facet normal 0.247195 0 0.968966
    outer loop
      vertex 10.7279 3 72.2835
      vertex 11.212 0 72.16
      vertex 11.212 3 72.16
    endloop
  endfacet
  facet normal 0.247195 0 0.968966
    outer loop
      vertex 11.212 0 72.16
      vertex 10.7279 3 72.2835
      vertex 10.7279 0 72.2835
    endloop
  endfacet
  facet normal -0.778599 0 0.627522
    outer loop
      vertex 17.9902 0 74.416
      vertex 18.3038 3 74.8051
      vertex 17.9902 3 74.416
    endloop
  endfacet
  facet normal -0.778599 0 0.627522
    outer loop
      vertex 18.3038 3 74.8051
      vertex 17.9902 0 74.416
      vertex 18.3038 0 74.8051
    endloop
  endfacet
  facet normal -0.994251 0 -0.10707
    outer loop
      vertex 19.6822 0 79.4994
      vertex 19.6287 3 79.9962
      vertex 19.6822 3 79.4994
    endloop
  endfacet
  facet normal -0.994251 -0 -0.10707
    outer loop
      vertex 19.6287 3 79.9962
      vertex 19.6822 0 79.4994
      vertex 19.6287 0 79.9962
    endloop
  endfacet
  facet normal -0.984122 0 -0.177494
    outer loop
      vertex 19.6287 0 79.9962
      vertex 19.54 3 80.488
      vertex 19.6287 3 79.9962
    endloop
  endfacet
  facet normal -0.984122 -0 -0.177494
    outer loop
      vertex 19.54 3 80.488
      vertex 19.6287 0 79.9962
      vertex 19.54 0 80.488
    endloop
  endfacet
  facet normal -0.999365 0 -0.0356202
    outer loop
      vertex 19.7 0 79
      vertex 19.6822 3 79.4994
      vertex 19.7 3 79
    endloop
  endfacet
  facet normal -0.999365 -0 -0.0356202
    outer loop
      vertex 19.6822 3 79.4994
      vertex 19.7 0 79
      vertex 19.6822 0 79.4994
    endloop
  endfacet
  facet normal -0.968966 0 -0.247195
    outer loop
      vertex 19.54 0 80.488
      vertex 19.4165 3 80.9721
      vertex 19.54 3 80.488
    endloop
  endfacet
  facet normal -0.968966 -0 -0.247195
    outer loop
      vertex 19.4165 3 80.9721
      vertex 19.54 0 80.488
      vertex 19.4165 0 80.9721
    endloop
  endfacet
  facet normal 0.984115 0 -0.177533
    outer loop
      vertex 5.85997 0 80.488
      vertex 5.77125 3 79.9962
      vertex 5.85997 3 80.488
    endloop
  endfacet
  facet normal 0.984115 0 -0.177533
    outer loop
      vertex 5.77125 3 79.9962
      vertex 5.85997 0 80.488
      vertex 5.77125 0 79.9962
    endloop
  endfacet
  facet normal -0.510252 0 -0.860025
    outer loop
      vertex 16.0547 0 85.1438
      vertex 16.4845 3 84.8888
      vertex 16.4845 0 84.8888
    endloop
  endfacet
  facet normal -0.510252 0 -0.860025
    outer loop
      vertex 16.4845 3 84.8888
      vertex 16.0547 0 85.1438
      vertex 16.0547 3 85.1438
    endloop
  endfacet
  facet normal 0.0356202 0 0.999365
    outer loop
      vertex 12.2006 3 72.0178
      vertex 12.7 0 72
      vertex 12.7 3 72
    endloop
  endfacet
  facet normal 0.0356202 0 0.999365
    outer loop
      vertex 12.7 0 72
      vertex 12.2006 3 72.0178
      vertex 12.2006 0 72.0178
    endloop
  endfacet
  facet normal -0.894267 0 0.447534
    outer loop
      vertex 18.8438 0 75.6453
      vertex 19.0674 3 76.0921
      vertex 18.8438 3 75.6453
    endloop
  endfacet
  facet normal -0.894267 0 0.447534
    outer loop
      vertex 19.0674 3 76.0921
      vertex 18.8438 0 75.6453
      vertex 19.0674 0 76.0921
    endloop
  endfacet
  facet normal -0.82137 0 0.570396
    outer loop
      vertex 18.3038 0 74.8051
      vertex 18.5888 3 75.2155
      vertex 18.3038 3 74.8051
    endloop
  endfacet
  facet normal -0.82137 0 0.570396
    outer loop
      vertex 18.5888 3 75.2155
      vertex 18.3038 0 74.8051
      vertex 18.5888 0 75.2155
    endloop
  endfacet
  facet normal -0.627522 0 -0.778599
    outer loop
      vertex 16.8949 0 84.6038
      vertex 17.284 3 84.2902
      vertex 17.284 0 84.2902
    endloop
  endfacet
  facet normal -0.627522 0 -0.778599
    outer loop
      vertex 17.284 3 84.2902
      vertex 16.8949 0 84.6038
      vertex 16.8949 3 84.6038
    endloop
  endfacet
  facet normal -0.0356202 0 -0.999365
    outer loop
      vertex 12.7 0 86
      vertex 13.1994 3 85.9822
      vertex 13.1994 0 85.9822
    endloop
  endfacet
  facet normal -0.0356202 0 -0.999365
    outer loop
      vertex 13.1994 3 85.9822
      vertex 12.7 0 86
      vertex 12.7 3 86
    endloop
  endfacet
  facet normal 0.247195 0 -0.968966
    outer loop
      vertex 10.7279 0 85.7165
      vertex 11.212 3 85.84
      vertex 11.212 0 85.84
    endloop
  endfacet
  facet normal 0.247195 0 -0.968966
    outer loop
      vertex 11.212 3 85.84
      vertex 10.7279 0 85.7165
      vertex 10.7279 3 85.7165
    endloop
  endfacet
  facet normal 0.44751 0 -0.894279
    outer loop
      vertex 9.34526 0 85.1438
      vertex 9.79209 3 85.3674
      vertex 9.79209 0 85.3674
    endloop
  endfacet
  facet normal 0.44751 0 -0.894279
    outer loop
      vertex 9.79209 3 85.3674
      vertex 9.34526 0 85.1438
      vertex 9.34526 3 85.1438
    endloop
  endfacet
  facet normal 0.315928 0 -0.948783
    outer loop
      vertex 10.2537 0 85.5586
      vertex 10.7279 3 85.7165
      vertex 10.7279 0 85.7165
    endloop
  endfacet
  facet normal 0.315928 0 -0.948783
    outer loop
      vertex 10.7279 3 85.7165
      vertex 10.2537 0 85.5586
      vertex 10.2537 3 85.5586
    endloop
  endfacet
  facet normal 0.570349 0 -0.821403
    outer loop
      vertex 8.50506 0 84.6038
      vertex 8.91551 3 84.8888
      vertex 8.91551 0 84.8888
    endloop
  endfacet
  facet normal 0.570349 0 -0.821403
    outer loop
      vertex 8.91551 3 84.8888
      vertex 8.50506 0 84.6038
      vertex 8.50506 3 84.6038
    endloop
  endfacet
  facet normal -0.92388 0 -0.382682
    outer loop
      vertex 19.2586 0 81.4463
      vertex 19.0674 3 81.9079
      vertex 19.2586 3 81.4463
    endloop
  endfacet
  facet normal -0.92388 -0 -0.382682
    outer loop
      vertex 19.0674 3 81.9079
      vertex 19.2586 0 81.4463
      vertex 19.0674 0 81.9079
    endloop
  endfacet
  facet normal -0.860025 0 -0.510252
    outer loop
      vertex 18.8438 0 82.3547
      vertex 18.5888 3 82.7845
      vertex 18.8438 3 82.3547
    endloop
  endfacet
  facet normal -0.860025 -0 -0.510252
    outer loop
      vertex 18.5888 3 82.7845
      vertex 18.8438 0 82.3547
      vertex 18.5888 0 82.7845
    endloop
  endfacet
  facet normal -0.315988 0 -0.948763
    outer loop
      vertex 14.6721 0 85.7165
      vertex 15.1462 3 85.5586
      vertex 15.1462 0 85.5586
    endloop
  endfacet
  facet normal -0.315988 0 -0.948763
    outer loop
      vertex 15.1462 3 85.5586
      vertex 14.6721 0 85.7165
      vertex 14.6721 3 85.7165
    endloop
  endfacet
  facet normal -0.177494 0 -0.984122
    outer loop
      vertex 13.6962 0 85.9287
      vertex 14.188 3 85.84
      vertex 14.188 0 85.84
    endloop
  endfacet
  facet normal -0.177494 0 -0.984122
    outer loop
      vertex 14.188 3 85.84
      vertex 13.6962 0 85.9287
      vertex 13.6962 3 85.9287
    endloop
  endfacet
  facet normal -0.177494 0 0.984122
    outer loop
      vertex 13.6962 3 72.0713
      vertex 14.188 0 72.16
      vertex 14.188 3 72.16
    endloop
  endfacet
  facet normal -0.177494 0 0.984122
    outer loop
      vertex 14.188 0 72.16
      vertex 13.6962 3 72.0713
      vertex 13.6962 0 72.0713
    endloop
  endfacet
  facet normal -0.382611 0 0.92391
    outer loop
      vertex 15.1462 3 72.4414
      vertex 15.6079 0 72.6326
      vertex 15.6079 3 72.6326
    endloop
  endfacet
  facet normal -0.382611 0 0.92391
    outer loop
      vertex 15.6079 0 72.6326
      vertex 15.1462 3 72.4414
      vertex 15.1462 0 72.4414
    endloop
  endfacet
  facet normal -0.731873 0 0.681441
    outer loop
      vertex 17.6497 0 74.0503
      vertex 17.9902 3 74.416
      vertex 17.6497 3 74.0503
    endloop
  endfacet
  facet normal -0.731873 0 0.681441
    outer loop
      vertex 17.9902 3 74.416
      vertex 17.6497 0 74.0503
      vertex 17.9902 0 74.416
    endloop
  endfacet
  facet normal -0.10707 0 -0.994251
    outer loop
      vertex 13.1994 0 85.9822
      vertex 13.6962 3 85.9287
      vertex 13.6962 0 85.9287
    endloop
  endfacet
  facet normal -0.10707 0 -0.994251
    outer loop
      vertex 13.6962 3 85.9287
      vertex 13.1994 0 85.9822
      vertex 13.1994 3 85.9822
    endloop
  endfacet
  facet normal -0.382611 0 -0.92391
    outer loop
      vertex 15.1462 0 85.5586
      vertex 15.6079 3 85.3674
      vertex 15.6079 0 85.3674
    endloop
  endfacet
  facet normal -0.382611 0 -0.92391
    outer loop
      vertex 15.6079 3 85.3674
      vertex 15.1462 0 85.5586
      vertex 15.1462 3 85.5586
    endloop
  endfacet
  facet normal -0.681441 0 -0.731873
    outer loop
      vertex 17.284 0 84.2902
      vertex 17.6497 3 83.9497
      vertex 17.6497 0 83.9497
    endloop
  endfacet
  facet normal -0.681441 0 -0.731873
    outer loop
      vertex 17.6497 3 83.9497
      vertex 17.284 0 84.2902
      vertex 17.284 3 84.2902
    endloop
  endfacet
  facet normal -0.778599 0 -0.627522
    outer loop
      vertex 18.3038 0 83.1949
      vertex 17.9902 3 83.584
      vertex 18.3038 3 83.1949
    endloop
  endfacet
  facet normal -0.778599 -0 -0.627522
    outer loop
      vertex 17.9902 3 83.584
      vertex 18.3038 0 83.1949
      vertex 17.9902 0 83.584
    endloop
  endfacet
  facet normal 0.681421 0 -0.731892
    outer loop
      vertex 7.75025 0 83.9497
      vertex 8.11597 3 84.2902
      vertex 8.11597 0 84.2902
    endloop
  endfacet
  facet normal 0.681421 0 -0.731892
    outer loop
      vertex 8.11597 3 84.2902
      vertex 7.75025 0 83.9497
      vertex 7.75025 3 83.9497
    endloop
  endfacet
  facet normal 0.731873 0 -0.681441
    outer loop
      vertex 7.75025 0 83.9497
      vertex 7.40975 3 83.584
      vertex 7.75025 3 83.9497
    endloop
  endfacet
  facet normal 0.731873 0 -0.681441
    outer loop
      vertex 7.40975 3 83.584
      vertex 7.75025 0 83.9497
      vertex 7.40975 0 83.584
    endloop
  endfacet
  facet normal 0.860051 0 -0.510208
    outer loop
      vertex 6.81122 0 82.7845
      vertex 6.55625 3 82.3547
      vertex 6.81122 3 82.7845
    endloop
  endfacet
  facet normal 0.860051 0 -0.510208
    outer loop
      vertex 6.55625 3 82.3547
      vertex 6.81122 0 82.7845
      vertex 6.55625 0 82.3547
    endloop
  endfacet
  facet normal 0.923859 0 -0.382733
    outer loop
      vertex 6.33258 0 81.9079
      vertex 6.14135 3 81.4463
      vertex 6.33258 3 81.9079
    endloop
  endfacet
  facet normal 0.923859 0 -0.382733
    outer loop
      vertex 6.14135 3 81.4463
      vertex 6.33258 0 81.9079
      vertex 6.14135 0 81.4463
    endloop
  endfacet
  facet normal 0.177494 0 -0.984122
    outer loop
      vertex 11.212 0 85.84
      vertex 11.7038 3 85.9287
      vertex 11.7038 0 85.9287
    endloop
  endfacet
  facet normal 0.177494 0 -0.984122
    outer loop
      vertex 11.7038 3 85.9287
      vertex 11.212 0 85.84
      vertex 11.212 3 85.84
    endloop
  endfacet
  facet normal 0.382675 0 -0.923883
    outer loop
      vertex 9.79209 0 85.3674
      vertex 10.2537 3 85.5586
      vertex 10.2537 0 85.5586
    endloop
  endfacet
  facet normal 0.382675 0 -0.923883
    outer loop
      vertex 10.2537 3 85.5586
      vertex 9.79209 0 85.3674
      vertex 9.79209 3 85.3674
    endloop
  endfacet
  facet normal 0.510296 0 -0.859999
    outer loop
      vertex 8.91551 0 84.8888
      vertex 9.34526 3 85.1438
      vertex 9.34526 0 85.1438
    endloop
  endfacet
  facet normal 0.510296 0 -0.859999
    outer loop
      vertex 9.34526 3 85.1438
      vertex 8.91551 0 84.8888
      vertex 8.91551 3 84.8888
    endloop
  endfacet
  facet normal -0.894267 0 -0.447534
    outer loop
      vertex 19.0674 0 81.9079
      vertex 18.8438 3 82.3547
      vertex 19.0674 3 81.9079
    endloop
  endfacet
  facet normal -0.894267 -0 -0.447534
    outer loop
      vertex 18.8438 3 82.3547
      vertex 19.0674 0 81.9079
      vertex 18.8438 0 82.3547
    endloop
  endfacet
  facet normal -0.948783 0 -0.315928
    outer loop
      vertex 19.4165 0 80.9721
      vertex 19.2586 3 81.4463
      vertex 19.4165 3 80.9721
    endloop
  endfacet
  facet normal -0.948783 -0 -0.315928
    outer loop
      vertex 19.2586 3 81.4463
      vertex 19.4165 0 80.9721
      vertex 19.2586 0 81.4463
    endloop
  endfacet
  facet normal -0.247195 0 -0.968966
    outer loop
      vertex 14.188 0 85.84
      vertex 14.6721 3 85.7165
      vertex 14.6721 0 85.7165
    endloop
  endfacet
  facet normal -0.247195 0 -0.968966
    outer loop
      vertex 14.6721 3 85.7165
      vertex 14.188 0 85.84
      vertex 14.188 3 85.84
    endloop
  endfacet
  facet normal -0.10707 0 0.994251
    outer loop
      vertex 13.1994 3 72.0178
      vertex 13.6962 0 72.0713
      vertex 13.6962 3 72.0713
    endloop
  endfacet
  facet normal -0.10707 0 0.994251
    outer loop
      vertex 13.6962 0 72.0713
      vertex 13.1994 3 72.0178
      vertex 13.1994 0 72.0178
    endloop
  endfacet
  facet normal -0.247195 0 0.968966
    outer loop
      vertex 14.188 3 72.16
      vertex 14.6721 0 72.2835
      vertex 14.6721 3 72.2835
    endloop
  endfacet
  facet normal -0.247195 0 0.968966
    outer loop
      vertex 14.6721 0 72.2835
      vertex 14.188 3 72.16
      vertex 14.188 0 72.16
    endloop
  endfacet
  facet normal -0.510252 0 0.860025
    outer loop
      vertex 16.0547 3 72.8562
      vertex 16.4845 0 73.1112
      vertex 16.4845 3 73.1112
    endloop
  endfacet
  facet normal -0.510252 0 0.860025
    outer loop
      vertex 16.4845 0 73.1112
      vertex 16.0547 3 72.8562
      vertex 16.0547 0 72.8562
    endloop
  endfacet
  facet normal -0.570396 0 -0.82137
    outer loop
      vertex 16.4845 0 84.8888
      vertex 16.8949 3 84.6038
      vertex 16.8949 0 84.6038
    endloop
  endfacet
  facet normal -0.570396 0 -0.82137
    outer loop
      vertex 16.8949 3 84.6038
      vertex 16.4845 0 84.8888
      vertex 16.4845 3 84.8888
    endloop
  endfacet
  facet normal 0.627531 0 -0.778591
    outer loop
      vertex 8.11597 0 84.2902
      vertex 8.50506 3 84.6038
      vertex 8.50506 0 84.6038
    endloop
  endfacet
  facet normal 0.627531 0 -0.778591
    outer loop
      vertex 8.50506 3 84.6038
      vertex 8.11597 0 84.2902
      vertex 8.11597 3 84.2902
    endloop
  endfacet
  facet normal 0.778658 0 -0.627449
    outer loop
      vertex 7.40975 0 83.584
      vertex 7.09621 3 83.1949
      vertex 7.40975 3 83.584
    endloop
  endfacet
  facet normal 0.778658 0 -0.627449
    outer loop
      vertex 7.09621 3 83.1949
      vertex 7.40975 0 83.584
      vertex 7.09621 0 83.1949
    endloop
  endfacet
  facet normal 0.948843 0 -0.315748
    outer loop
      vertex 6.14135 0 81.4463
      vertex 5.98355 3 80.9721
      vertex 6.14135 3 81.4463
    endloop
  endfacet
  facet normal 0.948843 0 -0.315748
    outer loop
      vertex 5.98355 3 80.9721
      vertex 6.14135 0 81.4463
      vertex 5.98355 0 80.9721
    endloop
  endfacet
  facet normal 0.0356202 0 -0.999365
    outer loop
      vertex 12.2006 0 85.9822
      vertex 12.7 3 86
      vertex 12.7 0 86
    endloop
  endfacet
  facet normal 0.0356202 0 -0.999365
    outer loop
      vertex 12.7 3 86
      vertex 12.2006 0 85.9822
      vertex 12.2006 3 85.9822
    endloop
  endfacet
  facet normal -0.0356202 0 0.999365
    outer loop
      vertex 12.7 3 72
      vertex 13.1994 0 72.0178
      vertex 13.1994 3 72.0178
    endloop
  endfacet
  facet normal -0.0356202 0 0.999365
    outer loop
      vertex 13.1994 0 72.0178
      vertex 12.7 3 72
      vertex 12.7 0 72
    endloop
  endfacet
  facet normal -0.447534 0 0.894267
    outer loop
      vertex 15.6079 3 72.6326
      vertex 16.0547 0 72.8562
      vertex 16.0547 3 72.8562
    endloop
  endfacet
  facet normal -0.447534 0 0.894267
    outer loop
      vertex 16.0547 0 72.8562
      vertex 15.6079 3 72.6326
      vertex 15.6079 0 72.6326
    endloop
  endfacet
  facet normal -0.570396 0 0.82137
    outer loop
      vertex 16.4845 3 73.1112
      vertex 16.8949 0 73.3962
      vertex 16.8949 3 73.3962
    endloop
  endfacet
  facet normal -0.570396 0 0.82137
    outer loop
      vertex 16.8949 0 73.3962
      vertex 16.4845 3 73.1112
      vertex 16.4845 0 73.1112
    endloop
  endfacet
  facet normal -0.860025 0 0.510252
    outer loop
      vertex 18.5888 0 75.2155
      vertex 18.8438 3 75.6453
      vertex 18.5888 3 75.2155
    endloop
  endfacet
  facet normal -0.860025 0 0.510252
    outer loop
      vertex 18.8438 3 75.6453
      vertex 18.5888 0 75.2155
      vertex 18.8438 0 75.6453
    endloop
  endfacet
  facet normal -0.948783 0 0.315928
    outer loop
      vertex 19.2586 0 76.5537
      vertex 19.4165 3 77.0279
      vertex 19.2586 3 76.5537
    endloop
  endfacet
  facet normal -0.948783 0 0.315928
    outer loop
      vertex 19.4165 3 77.0279
      vertex 19.2586 0 76.5537
      vertex 19.4165 0 77.0279
    endloop
  endfacet
  facet normal -0.82137 0 -0.570396
    outer loop
      vertex 18.5888 0 82.7845
      vertex 18.3038 3 83.1949
      vertex 18.5888 3 82.7845
    endloop
  endfacet
  facet normal -0.82137 -0 -0.570396
    outer loop
      vertex 18.3038 3 83.1949
      vertex 18.5888 0 82.7845
      vertex 18.3038 0 83.1949
    endloop
  endfacet
  facet normal 0.821379 0 -0.570382
    outer loop
      vertex 7.09621 0 83.1949
      vertex 6.81122 3 82.7845
      vertex 7.09621 3 83.1949
    endloop
  endfacet
  facet normal 0.821379 0 -0.570382
    outer loop
      vertex 6.81122 3 82.7845
      vertex 7.09621 0 83.1949
      vertex 6.81122 0 82.7845
    endloop
  endfacet
  facet normal 0.894211 0 -0.447646
    outer loop
      vertex 6.55625 0 82.3547
      vertex 6.33258 3 81.9079
      vertex 6.55625 3 82.3547
    endloop
  endfacet
  facet normal 0.894211 0 -0.447646
    outer loop
      vertex 6.33258 3 81.9079
      vertex 6.55625 0 82.3547
      vertex 6.33258 0 81.9079
    endloop
  endfacet
  facet normal -0.627522 0 0.778599
    outer loop
      vertex 16.8949 3 73.3962
      vertex 17.284 0 73.7098
      vertex 17.284 3 73.7098
    endloop
  endfacet
  facet normal -0.627522 0 0.778599
    outer loop
      vertex 17.284 0 73.7098
      vertex 16.8949 3 73.3962
      vertex 16.8949 0 73.3962
    endloop
  endfacet
  facet normal -0.92388 0 0.382682
    outer loop
      vertex 19.0674 0 76.0921
      vertex 19.2586 3 76.5537
      vertex 19.0674 3 76.0921
    endloop
  endfacet
  facet normal -0.92388 0 0.382682
    outer loop
      vertex 19.2586 3 76.5537
      vertex 19.0674 0 76.0921
      vertex 19.2586 0 76.5537
    endloop
  endfacet
  facet normal -0.984122 0 0.177494
    outer loop
      vertex 19.54 0 77.512
      vertex 19.6287 3 78.0038
      vertex 19.54 3 77.512
    endloop
  endfacet
  facet normal -0.984122 0 0.177494
    outer loop
      vertex 19.6287 3 78.0038
      vertex 19.54 0 77.512
      vertex 19.6287 0 78.0038
    endloop
  endfacet
  facet normal -0.968966 0 0.247195
    outer loop
      vertex 19.4165 0 77.0279
      vertex 19.54 3 77.512
      vertex 19.4165 3 77.0279
    endloop
  endfacet
  facet normal -0.968966 0 0.247195
    outer loop
      vertex 19.54 3 77.512
      vertex 19.4165 0 77.0279
      vertex 19.54 0 77.512
    endloop
  endfacet
  facet normal -0.994251 0 0.10707
    outer loop
      vertex 19.6287 0 78.0038
      vertex 19.6822 3 78.5006
      vertex 19.6287 3 78.0038
    endloop
  endfacet
  facet normal -0.994251 0 0.10707
    outer loop
      vertex 19.6822 3 78.5006
      vertex 19.6287 0 78.0038
      vertex 19.6822 0 78.5006
    endloop
  endfacet
endsolid OpenSCAD_Model
