solid OpenSCAD_Model
  facet normal 1 0 0
    outer loop
      vertex 0 20 63
      vertex 0 4 35
      vertex 0 20 0
    endloop
  endfacet
  facet normal 1 -0 0
    outer loop
      vertex 0 3 63
      vertex 0 4 35
      vertex 0 20 63
    endloop
  endfacet
  facet normal 1 0 0
    outer loop
      vertex 0 4 35
      vertex 0 3 63
      vertex 0 3 35
    endloop
  endfacet
  facet normal 1 0 0
    outer loop
      vertex 0 20 0
      vertex 0 4 35
      vertex 0 4 0
    endloop
  endfacet
  facet normal 1 -0 0
    outer loop
      vertex 0 3 35
      vertex 0 4 0
      vertex 0 4 35
    endloop
  endfacet
  facet normal 1 0 0
    outer loop
      vertex 0 0 0
      vertex 0 3 35
      vertex 0 0 35
    endloop
  endfacet
  facet normal 1 0 0
    outer loop
      vertex 0 3 35
      vertex 0 0 0
      vertex 0 4 0
    endloop
  endfacet
  facet normal 0 0 1
    outer loop
      vertex 0 20 63
      vertex -3 20 63
      vertex 0 3 63
    endloop
  endfacet
  facet normal -0 0 1
    outer loop
      vertex 0 3 63
      vertex 40 0 63
      vertex 40 3 63
    endloop
  endfacet
  facet normal 0 0 1
    outer loop
      vertex 0 3 63
      vertex -3 0 63
      vertex 40 0 63
    endloop
  endfacet
  facet normal 0 0 1
    outer loop
      vertex -3 0 63
      vertex 0 3 63
      vertex -3 20 63
    endloop
  endfacet
  facet normal 1 -0 0
    outer loop
      vertex 40 0 63
      vertex 40 3 35
      vertex 40 3 63
    endloop
  endfacet
  facet normal 1 0 0
    outer loop
      vertex 40 3 35
      vertex 40 0 63
      vertex 40 0 35
    endloop
  endfacet
  facet normal 0 1 0
    outer loop
      vertex 40 3 63
      vertex 20 3 56
      vertex 0 3 63
    endloop
  endfacet
  facet normal 0 1 0
    outer loop
      vertex 40 3 63
      vertex 20.4994 3 55.9822
      vertex 20 3 56
    endloop
  endfacet
  facet normal 0 1 0
    outer loop
      vertex 40 3 63
      vertex 20.9962 3 55.9287
      vertex 20.4994 3 55.9822
    endloop
  endfacet
  facet normal 0 1 0
    outer loop
      vertex 40 3 63
      vertex 21.488 3 55.84
      vertex 20.9962 3 55.9287
    endloop
  endfacet
  facet normal 0 1 0
    outer loop
      vertex 40 3 63
      vertex 21.9721 3 55.7164
      vertex 21.488 3 55.84
    endloop
  endfacet
  facet normal 0 1 0
    outer loop
      vertex 40 3 63
      vertex 22.4462 3 55.5586
      vertex 21.9721 3 55.7164
    endloop
  endfacet
  facet normal 0 1 0
    outer loop
      vertex 40 3 63
      vertex 22.9079 3 55.3674
      vertex 22.4462 3 55.5586
    endloop
  endfacet
  facet normal 0 1 0
    outer loop
      vertex 40 3 63
      vertex 23.3547 3 55.1438
      vertex 22.9079 3 55.3674
    endloop
  endfacet
  facet normal 0 1 0
    outer loop
      vertex 40 3 63
      vertex 23.7845 3 54.8888
      vertex 23.3547 3 55.1438
    endloop
  endfacet
  facet normal 0 1 0
    outer loop
      vertex 40 3 63
      vertex 24.1949 3 54.6038
      vertex 23.7845 3 54.8888
    endloop
  endfacet
  facet normal 0 1 0
    outer loop
      vertex 40 3 63
      vertex 24.584 3 54.2902
      vertex 24.1949 3 54.6038
    endloop
  endfacet
  facet normal 0 1 0
    outer loop
      vertex 40 3 63
      vertex 24.9497 3 53.9497
      vertex 24.584 3 54.2902
    endloop
  endfacet
  facet normal 0 1 0
    outer loop
      vertex 40 3 63
      vertex 25.2902 3 53.584
      vertex 24.9497 3 53.9497
    endloop
  endfacet
  facet normal 0 1 0
    outer loop
      vertex 40 3 63
      vertex 25.6038 3 53.1949
      vertex 25.2902 3 53.584
    endloop
  endfacet
  facet normal 0 1 0
    outer loop
      vertex 40 3 63
      vertex 25.8888 3 52.7845
      vertex 25.6038 3 53.1949
    endloop
  endfacet
  facet normal 0 1 0
    outer loop
      vertex 40 3 63
      vertex 26.1438 3 52.3547
      vertex 25.8888 3 52.7845
    endloop
  endfacet
  facet normal 0 1 0
    outer loop
      vertex 40 3 63
      vertex 26.3674 3 51.9079
      vertex 26.1438 3 52.3547
    endloop
  endfacet
  facet normal 0 1 0
    outer loop
      vertex 40 3 63
      vertex 26.5586 3 51.4463
      vertex 26.3674 3 51.9079
    endloop
  endfacet
  facet normal 0 1 0
    outer loop
      vertex 40 3 63
      vertex 26.7164 3 50.9721
      vertex 26.5586 3 51.4463
    endloop
  endfacet
  facet normal 0 1 0
    outer loop
      vertex 40 3 63
      vertex 26.84 3 50.488
      vertex 26.7164 3 50.9721
    endloop
  endfacet
  facet normal 0 1 0
    outer loop
      vertex 40 3 63
      vertex 26.9287 3 49.9962
      vertex 26.84 3 50.488
    endloop
  endfacet
  facet normal 0 1 0
    outer loop
      vertex 40 3 63
      vertex 26.9822 3 49.4994
      vertex 26.9287 3 49.9962
    endloop
  endfacet
  facet normal 0 1 0
    outer loop
      vertex 40 3 63
      vertex 27 3 49
      vertex 26.9822 3 49.4994
    endloop
  endfacet
  facet normal 0 1 -0
    outer loop
      vertex 40 3 35
      vertex 27 3 49
      vertex 40 3 63
    endloop
  endfacet
  facet normal 0 1 0
    outer loop
      vertex 27 3 49
      vertex 40 3 35
      vertex 26.9822 3 48.5006
    endloop
  endfacet
  facet normal 0 1 0
    outer loop
      vertex 26.9822 3 48.5006
      vertex 40 3 35
      vertex 26.9287 3 48.0038
    endloop
  endfacet
  facet normal 0 1 0
    outer loop
      vertex 26.9287 3 48.0038
      vertex 40 3 35
      vertex 26.84 3 47.512
    endloop
  endfacet
  facet normal 0 1 0
    outer loop
      vertex 26.84 3 47.512
      vertex 40 3 35
      vertex 26.7164 3 47.0279
    endloop
  endfacet
  facet normal 0 1 0
    outer loop
      vertex 26.7164 3 47.0279
      vertex 40 3 35
      vertex 26.5586 3 46.5537
    endloop
  endfacet
  facet normal 0 1 0
    outer loop
      vertex 26.5586 3 46.5537
      vertex 40 3 35
      vertex 26.3674 3 46.0921
    endloop
  endfacet
  facet normal 0 1 0
    outer loop
      vertex 26.3674 3 46.0921
      vertex 40 3 35
      vertex 26.1438 3 45.6453
    endloop
  endfacet
  facet normal 0 1 0
    outer loop
      vertex 26.1438 3 45.6453
      vertex 40 3 35
      vertex 25.8888 3 45.2155
    endloop
  endfacet
  facet normal 0 1 0
    outer loop
      vertex 20.4994 3 42.0178
      vertex 40 3 35
      vertex 20 3 42
    endloop
  endfacet
  facet normal 0 1 0
    outer loop
      vertex 20.9962 3 42.0713
      vertex 40 3 35
      vertex 20.4994 3 42.0178
    endloop
  endfacet
  facet normal 0 1 0
    outer loop
      vertex 21.488 3 42.16
      vertex 40 3 35
      vertex 20.9962 3 42.0713
    endloop
  endfacet
  facet normal 0 1 0
    outer loop
      vertex 21.9721 3 42.2835
      vertex 40 3 35
      vertex 21.488 3 42.16
    endloop
  endfacet
  facet normal 0 1 0
    outer loop
      vertex 22.4462 3 42.4414
      vertex 40 3 35
      vertex 21.9721 3 42.2835
    endloop
  endfacet
  facet normal 0 1 0
    outer loop
      vertex 22.9079 3 42.6326
      vertex 40 3 35
      vertex 22.4462 3 42.4414
    endloop
  endfacet
  facet normal 0 1 0
    outer loop
      vertex 23.3547 3 42.8562
      vertex 40 3 35
      vertex 22.9079 3 42.6326
    endloop
  endfacet
  facet normal 0 1 0
    outer loop
      vertex 23.7845 3 43.1112
      vertex 40 3 35
      vertex 23.3547 3 42.8562
    endloop
  endfacet
  facet normal 0 1 0
    outer loop
      vertex 24.1949 3 43.3962
      vertex 40 3 35
      vertex 23.7845 3 43.1112
    endloop
  endfacet
  facet normal 0 1 0
    outer loop
      vertex 24.584 3 43.7098
      vertex 40 3 35
      vertex 24.1949 3 43.3962
    endloop
  endfacet
  facet normal 0 1 0
    outer loop
      vertex 24.9497 3 44.0503
      vertex 40 3 35
      vertex 24.584 3 43.7098
    endloop
  endfacet
  facet normal 0 1 0
    outer loop
      vertex 25.2902 3 44.416
      vertex 40 3 35
      vertex 24.9497 3 44.0503
    endloop
  endfacet
  facet normal 0 1 0
    outer loop
      vertex 25.6038 3 44.8051
      vertex 40 3 35
      vertex 25.2902 3 44.416
    endloop
  endfacet
  facet normal 0 1 0
    outer loop
      vertex 25.8888 3 45.2155
      vertex 40 3 35
      vertex 25.6038 3 44.8051
    endloop
  endfacet
  facet normal 0 1 -0
    outer loop
      vertex 19.5006 3 55.9822
      vertex 0 3 63
      vertex 20 3 56
    endloop
  endfacet
  facet normal 0 1 -0
    outer loop
      vertex 19.0038 3 55.9287
      vertex 0 3 63
      vertex 19.5006 3 55.9822
    endloop
  endfacet
  facet normal 0 1 -0
    outer loop
      vertex 18.512 3 55.84
      vertex 0 3 63
      vertex 19.0038 3 55.9287
    endloop
  endfacet
  facet normal 0 1 -0
    outer loop
      vertex 18.0279 3 55.7164
      vertex 0 3 63
      vertex 18.512 3 55.84
    endloop
  endfacet
  facet normal 0 1 -0
    outer loop
      vertex 17.5537 3 55.5586
      vertex 0 3 63
      vertex 18.0279 3 55.7164
    endloop
  endfacet
  facet normal 0 1 -0
    outer loop
      vertex 17.0921 3 55.3674
      vertex 0 3 63
      vertex 17.5537 3 55.5586
    endloop
  endfacet
  facet normal 0 1 -0
    outer loop
      vertex 16.6453 3 55.1438
      vertex 0 3 63
      vertex 17.0921 3 55.3674
    endloop
  endfacet
  facet normal 0 1 -0
    outer loop
      vertex 16.2155 3 54.8888
      vertex 0 3 63
      vertex 16.6453 3 55.1438
    endloop
  endfacet
  facet normal 0 1 -0
    outer loop
      vertex 15.8051 3 54.6038
      vertex 0 3 63
      vertex 16.2155 3 54.8888
    endloop
  endfacet
  facet normal 0 1 -0
    outer loop
      vertex 15.416 3 54.2902
      vertex 0 3 63
      vertex 15.8051 3 54.6038
    endloop
  endfacet
  facet normal 0 1 -0
    outer loop
      vertex 15.0503 3 53.9497
      vertex 0 3 63
      vertex 15.416 3 54.2902
    endloop
  endfacet
  facet normal 0 1 -0
    outer loop
      vertex 14.7098 3 53.584
      vertex 0 3 63
      vertex 15.0503 3 53.9497
    endloop
  endfacet
  facet normal 0 1 -0
    outer loop
      vertex 14.3962 3 53.1949
      vertex 0 3 63
      vertex 14.7098 3 53.584
    endloop
  endfacet
  facet normal 0 1 -0
    outer loop
      vertex 14.1112 3 52.7845
      vertex 0 3 63
      vertex 14.3962 3 53.1949
    endloop
  endfacet
  facet normal 0 1 -0
    outer loop
      vertex 13.8562 3 52.3547
      vertex 0 3 63
      vertex 14.1112 3 52.7845
    endloop
  endfacet
  facet normal 0 1 -0
    outer loop
      vertex 13.6326 3 51.9079
      vertex 0 3 63
      vertex 13.8562 3 52.3547
    endloop
  endfacet
  facet normal 0 1 -0
    outer loop
      vertex 13.4414 3 51.4463
      vertex 0 3 63
      vertex 13.6326 3 51.9079
    endloop
  endfacet
  facet normal 0 1 -0
    outer loop
      vertex 13.2835 3 50.9721
      vertex 0 3 63
      vertex 13.4414 3 51.4463
    endloop
  endfacet
  facet normal 0 1 -0
    outer loop
      vertex 13.16 3 50.488
      vertex 0 3 63
      vertex 13.2835 3 50.9721
    endloop
  endfacet
  facet normal 0 1 -0
    outer loop
      vertex 13.0712 3 49.9962
      vertex 0 3 63
      vertex 13.16 3 50.488
    endloop
  endfacet
  facet normal 0 1 -0
    outer loop
      vertex 13.0178 3 49.4994
      vertex 0 3 63
      vertex 13.0712 3 49.9962
    endloop
  endfacet
  facet normal 0 1 -0
    outer loop
      vertex 13 3 49
      vertex 0 3 63
      vertex 13.0178 3 49.4994
    endloop
  endfacet
  facet normal 0 1 0
    outer loop
      vertex 0 3 35
      vertex 13 3 49
      vertex 13.0178 3 48.5006
    endloop
  endfacet
  facet normal 0 1 0
    outer loop
      vertex 0 3 35
      vertex 13.0178 3 48.5006
      vertex 13.0712 3 48.0038
    endloop
  endfacet
  facet normal 0 1 0
    outer loop
      vertex 0 3 35
      vertex 13.0712 3 48.0038
      vertex 13.16 3 47.512
    endloop
  endfacet
  facet normal 0 1 0
    outer loop
      vertex 0 3 35
      vertex 13.16 3 47.512
      vertex 13.2835 3 47.0279
    endloop
  endfacet
  facet normal 0 1 0
    outer loop
      vertex 0 3 35
      vertex 13.2835 3 47.0279
      vertex 13.4414 3 46.5537
    endloop
  endfacet
  facet normal 0 1 0
    outer loop
      vertex 0 3 35
      vertex 13.4414 3 46.5537
      vertex 13.6326 3 46.0921
    endloop
  endfacet
  facet normal 0 1 0
    outer loop
      vertex 0 3 35
      vertex 13.6326 3 46.0921
      vertex 13.8562 3 45.6453
    endloop
  endfacet
  facet normal 0 1 0
    outer loop
      vertex 0 3 35
      vertex 13.8562 3 45.6453
      vertex 14.1112 3 45.2155
    endloop
  endfacet
  facet normal 0 1 0
    outer loop
      vertex 0 3 35
      vertex 14.1112 3 45.2155
      vertex 14.3962 3 44.8051
    endloop
  endfacet
  facet normal 0 1 0
    outer loop
      vertex 0 3 35
      vertex 20 3 42
      vertex 40 3 35
    endloop
  endfacet
  facet normal 0 1 0
    outer loop
      vertex 20 3 42
      vertex 0 3 35
      vertex 19.5006 3 42.0178
    endloop
  endfacet
  facet normal 0 1 0
    outer loop
      vertex 19.5006 3 42.0178
      vertex 0 3 35
      vertex 19.0038 3 42.0713
    endloop
  endfacet
  facet normal 0 1 0
    outer loop
      vertex 19.0038 3 42.0713
      vertex 0 3 35
      vertex 18.512 3 42.16
    endloop
  endfacet
  facet normal 0 1 0
    outer loop
      vertex 13 3 49
      vertex 0 3 35
      vertex 0 3 63
    endloop
  endfacet
  facet normal 0 1 0
    outer loop
      vertex 14.7098 3 44.416
      vertex 0 3 35
      vertex 14.3962 3 44.8051
    endloop
  endfacet
  facet normal 0 1 0
    outer loop
      vertex 15.0503 3 44.0503
      vertex 0 3 35
      vertex 14.7098 3 44.416
    endloop
  endfacet
  facet normal 0 1 0
    outer loop
      vertex 15.416 3 43.7098
      vertex 0 3 35
      vertex 15.0503 3 44.0503
    endloop
  endfacet
  facet normal 0 1 0
    outer loop
      vertex 15.8051 3 43.3962
      vertex 0 3 35
      vertex 15.416 3 43.7098
    endloop
  endfacet
  facet normal 0 1 0
    outer loop
      vertex 16.2155 3 43.1112
      vertex 0 3 35
      vertex 15.8051 3 43.3962
    endloop
  endfacet
  facet normal 0 1 0
    outer loop
      vertex 16.6453 3 42.8562
      vertex 0 3 35
      vertex 16.2155 3 43.1112
    endloop
  endfacet
  facet normal 0 1 0
    outer loop
      vertex 17.0921 3 42.6326
      vertex 0 3 35
      vertex 16.6453 3 42.8562
    endloop
  endfacet
  facet normal 0 1 0
    outer loop
      vertex 17.5537 3 42.4414
      vertex 0 3 35
      vertex 17.0921 3 42.6326
    endloop
  endfacet
  facet normal 0 1 0
    outer loop
      vertex 18.0279 3 42.2835
      vertex 0 3 35
      vertex 17.5537 3 42.4414
    endloop
  endfacet
  facet normal 0 1 0
    outer loop
      vertex 18.512 3 42.16
      vertex 0 3 35
      vertex 18.0279 3 42.2835
    endloop
  endfacet
  facet normal 0 0 -1
    outer loop
      vertex -3 0 0
      vertex 0 4 0
      vertex 0 0 0
    endloop
  endfacet
  facet normal 0 0 -1
    outer loop
      vertex -3 20 0
      vertex 0 4 0
      vertex -3 0 0
    endloop
  endfacet
  facet normal 0 0 -1
    outer loop
      vertex 0 4 0
      vertex -3 20 0
      vertex 0 20 0
    endloop
  endfacet
  facet normal 0 -1 0
    outer loop
      vertex -3 0 63
      vertex 20 0 56
      vertex 40 0 63
    endloop
  endfacet
  facet normal 0 -1 0
    outer loop
      vertex -3 0 63
      vertex 19.5006 0 55.9822
      vertex 20 0 56
    endloop
  endfacet
  facet normal 0 -1 0
    outer loop
      vertex -3 0 63
      vertex 19.0038 0 55.9287
      vertex 19.5006 0 55.9822
    endloop
  endfacet
  facet normal 0 -1 0
    outer loop
      vertex -3 0 63
      vertex 18.512 0 55.84
      vertex 19.0038 0 55.9287
    endloop
  endfacet
  facet normal 0 -1 0
    outer loop
      vertex -3 0 63
      vertex 18.0279 0 55.7164
      vertex 18.512 0 55.84
    endloop
  endfacet
  facet normal 0 -1 0
    outer loop
      vertex -3 0 63
      vertex 17.5537 0 55.5586
      vertex 18.0279 0 55.7164
    endloop
  endfacet
  facet normal 0 -1 0
    outer loop
      vertex -3 0 63
      vertex 17.0921 0 55.3674
      vertex 17.5537 0 55.5586
    endloop
  endfacet
  facet normal 0 -1 0
    outer loop
      vertex -3 0 63
      vertex 16.6453 0 55.1438
      vertex 17.0921 0 55.3674
    endloop
  endfacet
  facet normal 0 -1 0
    outer loop
      vertex -3 0 63
      vertex 16.2155 0 54.8888
      vertex 16.6453 0 55.1438
    endloop
  endfacet
  facet normal 0 -1 0
    outer loop
      vertex -3 0 63
      vertex 15.8051 0 54.6038
      vertex 16.2155 0 54.8888
    endloop
  endfacet
  facet normal 0 -1 0
    outer loop
      vertex -3 0 63
      vertex 15.416 0 54.2902
      vertex 15.8051 0 54.6038
    endloop
  endfacet
  facet normal 0 -1 0
    outer loop
      vertex -3 0 63
      vertex 15.0503 0 53.9497
      vertex 15.416 0 54.2902
    endloop
  endfacet
  facet normal 0 -1 0
    outer loop
      vertex -3 0 63
      vertex 14.7098 0 53.584
      vertex 15.0503 0 53.9497
    endloop
  endfacet
  facet normal 0 -1 0
    outer loop
      vertex -3 0 63
      vertex 14.3962 0 53.1949
      vertex 14.7098 0 53.584
    endloop
  endfacet
  facet normal 0 -1 0
    outer loop
      vertex -3 0 63
      vertex 14.1112 0 52.7845
      vertex 14.3962 0 53.1949
    endloop
  endfacet
  facet normal 0 -1 0
    outer loop
      vertex -3 0 63
      vertex 13.8562 0 52.3547
      vertex 14.1112 0 52.7845
    endloop
  endfacet
  facet normal 0 -1 0
    outer loop
      vertex -3 0 63
      vertex 13.6326 0 51.9079
      vertex 13.8562 0 52.3547
    endloop
  endfacet
  facet normal 0 -1 0
    outer loop
      vertex -3 0 63
      vertex 13.4414 0 51.4463
      vertex 13.6326 0 51.9079
    endloop
  endfacet
  facet normal 0 -1 0
    outer loop
      vertex -3 0 63
      vertex 13.2835 0 50.9721
      vertex 13.4414 0 51.4463
    endloop
  endfacet
  facet normal 0 -1 0
    outer loop
      vertex -3 0 63
      vertex 13.16 0 50.488
      vertex 13.2835 0 50.9721
    endloop
  endfacet
  facet normal 0 -1 0
    outer loop
      vertex -3 0 63
      vertex 13.0712 0 49.9962
      vertex 13.16 0 50.488
    endloop
  endfacet
  facet normal 0 -1 0
    outer loop
      vertex -3 0 63
      vertex 13.0178 0 49.4994
      vertex 13.0712 0 49.9962
    endloop
  endfacet
  facet normal 0 -1 0
    outer loop
      vertex -3 0 63
      vertex 13 0 49
      vertex 13.0178 0 49.4994
    endloop
  endfacet
  facet normal 0 -1 0
    outer loop
      vertex 0 0 35
      vertex 13 0 49
      vertex -3 0 63
    endloop
  endfacet
  facet normal 0 -1 -0
    outer loop
      vertex 13 0 49
      vertex 0 0 35
      vertex 13.0178 0 48.5006
    endloop
  endfacet
  facet normal 0 -1 -0
    outer loop
      vertex 13.0178 0 48.5006
      vertex 0 0 35
      vertex 13.0712 0 48.0038
    endloop
  endfacet
  facet normal 0 -1 -0
    outer loop
      vertex 13.0712 0 48.0038
      vertex 0 0 35
      vertex 13.16 0 47.512
    endloop
  endfacet
  facet normal 0 -1 -0
    outer loop
      vertex 13.16 0 47.512
      vertex 0 0 35
      vertex 13.2835 0 47.0279
    endloop
  endfacet
  facet normal 0 -1 -0
    outer loop
      vertex 13.2835 0 47.0279
      vertex 0 0 35
      vertex 13.4414 0 46.5537
    endloop
  endfacet
  facet normal 0 -1 -0
    outer loop
      vertex 13.4414 0 46.5537
      vertex 0 0 35
      vertex 13.6326 0 46.0921
    endloop
  endfacet
  facet normal 0 -1 -0
    outer loop
      vertex 13.6326 0 46.0921
      vertex 0 0 35
      vertex 13.8562 0 45.6453
    endloop
  endfacet
  facet normal 0 -1 -0
    outer loop
      vertex 13.8562 0 45.6453
      vertex 0 0 35
      vertex 14.1112 0 45.2155
    endloop
  endfacet
  facet normal 0 -1 -0
    outer loop
      vertex 14.1112 0 45.2155
      vertex 0 0 35
      vertex 14.3962 0 44.8051
    endloop
  endfacet
  facet normal 0 -1 -0
    outer loop
      vertex 14.3962 0 44.8051
      vertex 0 0 35
      vertex 14.7098 0 44.416
    endloop
  endfacet
  facet normal 0 -1 -0
    outer loop
      vertex 19.5006 0 42.0178
      vertex 0 0 35
      vertex 20 0 42
    endloop
  endfacet
  facet normal 0 -1 -0
    outer loop
      vertex 19.0038 0 42.0713
      vertex 0 0 35
      vertex 19.5006 0 42.0178
    endloop
  endfacet
  facet normal 0 -1 -0
    outer loop
      vertex 18.512 0 42.16
      vertex 0 0 35
      vertex 19.0038 0 42.0713
    endloop
  endfacet
  facet normal 0 -1 -0
    outer loop
      vertex 18.0279 0 42.2835
      vertex 0 0 35
      vertex 18.512 0 42.16
    endloop
  endfacet
  facet normal 0 -1 -0
    outer loop
      vertex 17.5537 0 42.4414
      vertex 0 0 35
      vertex 18.0279 0 42.2835
    endloop
  endfacet
  facet normal 0 -1 -0
    outer loop
      vertex 17.0921 0 42.6326
      vertex 0 0 35
      vertex 17.5537 0 42.4414
    endloop
  endfacet
  facet normal 0 -1 -0
    outer loop
      vertex 16.6453 0 42.8562
      vertex 0 0 35
      vertex 17.0921 0 42.6326
    endloop
  endfacet
  facet normal 0 -1 -0
    outer loop
      vertex 16.2155 0 43.1112
      vertex 0 0 35
      vertex 16.6453 0 42.8562
    endloop
  endfacet
  facet normal 0 -1 -0
    outer loop
      vertex 15.8051 0 43.3962
      vertex 0 0 35
      vertex 16.2155 0 43.1112
    endloop
  endfacet
  facet normal 0 -1 -0
    outer loop
      vertex 15.416 0 43.7098
      vertex 0 0 35
      vertex 15.8051 0 43.3962
    endloop
  endfacet
  facet normal 0 -1 -0
    outer loop
      vertex 15.0503 0 44.0503
      vertex 0 0 35
      vertex 15.416 0 43.7098
    endloop
  endfacet
  facet normal 0 -1 -0
    outer loop
      vertex 14.7098 0 44.416
      vertex 0 0 35
      vertex 15.0503 0 44.0503
    endloop
  endfacet
  facet normal 0 -1 0
    outer loop
      vertex -3 0 0
      vertex 0 0 35
      vertex -3 0 63
    endloop
  endfacet
  facet normal 0 -1 -0
    outer loop
      vertex 0 0 35
      vertex -3 0 0
      vertex 0 0 0
    endloop
  endfacet
  facet normal 0 -1 0
    outer loop
      vertex 20.4994 0 55.9822
      vertex 40 0 63
      vertex 20 0 56
    endloop
  endfacet
  facet normal 0 -1 0
    outer loop
      vertex 20.9962 0 55.9287
      vertex 40 0 63
      vertex 20.4994 0 55.9822
    endloop
  endfacet
  facet normal 0 -1 0
    outer loop
      vertex 21.488 0 55.84
      vertex 40 0 63
      vertex 20.9962 0 55.9287
    endloop
  endfacet
  facet normal 0 -1 0
    outer loop
      vertex 21.9721 0 55.7164
      vertex 40 0 63
      vertex 21.488 0 55.84
    endloop
  endfacet
  facet normal 0 -1 0
    outer loop
      vertex 22.4462 0 55.5586
      vertex 40 0 63
      vertex 21.9721 0 55.7164
    endloop
  endfacet
  facet normal 0 -1 0
    outer loop
      vertex 22.9079 0 55.3674
      vertex 40 0 63
      vertex 22.4462 0 55.5586
    endloop
  endfacet
  facet normal 0 -1 0
    outer loop
      vertex 23.3547 0 55.1438
      vertex 40 0 63
      vertex 22.9079 0 55.3674
    endloop
  endfacet
  facet normal 0 -1 0
    outer loop
      vertex 23.7845 0 54.8888
      vertex 40 0 63
      vertex 23.3547 0 55.1438
    endloop
  endfacet
  facet normal 0 -1 0
    outer loop
      vertex 24.1949 0 54.6038
      vertex 40 0 63
      vertex 23.7845 0 54.8888
    endloop
  endfacet
  facet normal 0 -1 0
    outer loop
      vertex 24.584 0 54.2902
      vertex 40 0 63
      vertex 24.1949 0 54.6038
    endloop
  endfacet
  facet normal 0 -1 0
    outer loop
      vertex 24.9497 0 53.9497
      vertex 40 0 63
      vertex 24.584 0 54.2902
    endloop
  endfacet
  facet normal 0 -1 0
    outer loop
      vertex 25.2902 0 53.584
      vertex 40 0 63
      vertex 24.9497 0 53.9497
    endloop
  endfacet
  facet normal 0 -1 0
    outer loop
      vertex 25.6038 0 53.1949
      vertex 40 0 63
      vertex 25.2902 0 53.584
    endloop
  endfacet
  facet normal 0 -1 0
    outer loop
      vertex 25.8888 0 52.7845
      vertex 40 0 63
      vertex 25.6038 0 53.1949
    endloop
  endfacet
  facet normal 0 -1 0
    outer loop
      vertex 26.1438 0 52.3547
      vertex 40 0 63
      vertex 25.8888 0 52.7845
    endloop
  endfacet
  facet normal 0 -1 0
    outer loop
      vertex 26.3674 0 51.9079
      vertex 40 0 63
      vertex 26.1438 0 52.3547
    endloop
  endfacet
  facet normal 0 -1 0
    outer loop
      vertex 26.5586 0 51.4463
      vertex 40 0 63
      vertex 26.3674 0 51.9079
    endloop
  endfacet
  facet normal 0 -1 0
    outer loop
      vertex 26.7164 0 50.9721
      vertex 40 0 63
      vertex 26.5586 0 51.4463
    endloop
  endfacet
  facet normal 0 -1 0
    outer loop
      vertex 26.84 0 50.488
      vertex 40 0 63
      vertex 26.7164 0 50.9721
    endloop
  endfacet
  facet normal 0 -1 0
    outer loop
      vertex 26.9287 0 49.9962
      vertex 40 0 63
      vertex 26.84 0 50.488
    endloop
  endfacet
  facet normal 0 -1 0
    outer loop
      vertex 26.9822 0 49.4994
      vertex 40 0 63
      vertex 26.9287 0 49.9962
    endloop
  endfacet
  facet normal 0 -1 0
    outer loop
      vertex 27 0 49
      vertex 40 0 63
      vertex 26.9822 0 49.4994
    endloop
  endfacet
  facet normal 0 -1 0
    outer loop
      vertex 40 0 35
      vertex 27 0 49
      vertex 26.9822 0 48.5006
    endloop
  endfacet
  facet normal 0 -1 0
    outer loop
      vertex 40 0 35
      vertex 26.9822 0 48.5006
      vertex 26.9287 0 48.0038
    endloop
  endfacet
  facet normal 0 -1 0
    outer loop
      vertex 40 0 35
      vertex 26.9287 0 48.0038
      vertex 26.84 0 47.512
    endloop
  endfacet
  facet normal 0 -1 0
    outer loop
      vertex 40 0 35
      vertex 26.84 0 47.512
      vertex 26.7164 0 47.0279
    endloop
  endfacet
  facet normal 0 -1 0
    outer loop
      vertex 40 0 35
      vertex 26.7164 0 47.0279
      vertex 26.5586 0 46.5537
    endloop
  endfacet
  facet normal 0 -1 0
    outer loop
      vertex 40 0 35
      vertex 26.5586 0 46.5537
      vertex 26.3674 0 46.0921
    endloop
  endfacet
  facet normal 0 -1 0
    outer loop
      vertex 40 0 35
      vertex 26.3674 0 46.0921
      vertex 26.1438 0 45.6453
    endloop
  endfacet
  facet normal 0 -1 0
    outer loop
      vertex 40 0 35
      vertex 26.1438 0 45.6453
      vertex 25.8888 0 45.2155
    endloop
  endfacet
  facet normal 0 -1 0
    outer loop
      vertex 40 0 35
      vertex 25.8888 0 45.2155
      vertex 25.6038 0 44.8051
    endloop
  endfacet
  facet normal 0 -1 0
    outer loop
      vertex 40 0 35
      vertex 20 0 42
      vertex 0 0 35
    endloop
  endfacet
  facet normal 0 -1 0
    outer loop
      vertex 20 0 42
      vertex 40 0 35
      vertex 20.4994 0 42.0178
    endloop
  endfacet
  facet normal 0 -1 0
    outer loop
      vertex 20.4994 0 42.0178
      vertex 40 0 35
      vertex 20.9962 0 42.0713
    endloop
  endfacet
  facet normal 0 -1 0
    outer loop
      vertex 20.9962 0 42.0713
      vertex 40 0 35
      vertex 21.488 0 42.16
    endloop
  endfacet
  facet normal 0 -1 0
    outer loop
      vertex 27 0 49
      vertex 40 0 35
      vertex 40 0 63
    endloop
  endfacet
  facet normal 0 -1 0
    outer loop
      vertex 25.2902 0 44.416
      vertex 40 0 35
      vertex 25.6038 0 44.8051
    endloop
  endfacet
  facet normal 0 -1 0
    outer loop
      vertex 24.9497 0 44.0503
      vertex 40 0 35
      vertex 25.2902 0 44.416
    endloop
  endfacet
  facet normal 0 -1 0
    outer loop
      vertex 24.584 0 43.7098
      vertex 40 0 35
      vertex 24.9497 0 44.0503
    endloop
  endfacet
  facet normal 0 -1 0
    outer loop
      vertex 24.1949 0 43.3962
      vertex 40 0 35
      vertex 24.584 0 43.7098
    endloop
  endfacet
  facet normal 0 -1 0
    outer loop
      vertex 23.7845 0 43.1112
      vertex 40 0 35
      vertex 24.1949 0 43.3962
    endloop
  endfacet
  facet normal 0 -1 0
    outer loop
      vertex 23.3547 0 42.8562
      vertex 40 0 35
      vertex 23.7845 0 43.1112
    endloop
  endfacet
  facet normal 0 -1 0
    outer loop
      vertex 22.9079 0 42.6326
      vertex 40 0 35
      vertex 23.3547 0 42.8562
    endloop
  endfacet
  facet normal 0 -1 0
    outer loop
      vertex 22.4462 0 42.4414
      vertex 40 0 35
      vertex 22.9079 0 42.6326
    endloop
  endfacet
  facet normal 0 -1 0
    outer loop
      vertex 21.9721 0 42.2835
      vertex 40 0 35
      vertex 22.4462 0 42.4414
    endloop
  endfacet
  facet normal 0 -1 0
    outer loop
      vertex 21.488 0 42.16
      vertex 40 0 35
      vertex 21.9721 0 42.2835
    endloop
  endfacet
  facet normal 0 1 -0
    outer loop
      vertex 0 20 0
      vertex -3 20 63
      vertex 0 20 63
    endloop
  endfacet
  facet normal 0 1 0
    outer loop
      vertex -3 20 63
      vertex 0 20 0
      vertex -3 20 0
    endloop
  endfacet
  facet normal -1 0 0
    outer loop
      vertex -3 0 0
      vertex -3 20 63
      vertex -3 20 0
    endloop
  endfacet
  facet normal -1 -0 0
    outer loop
      vertex -3 20 63
      vertex -3 0 0
      vertex -3 0 63
    endloop
  endfacet
  facet normal 0 0 -1
    outer loop
      vertex 0 0 35
      vertex 40 3 35
      vertex 40 0 35
    endloop
  endfacet
  facet normal -0 0 -1
    outer loop
      vertex 40 3 35
      vertex 0 0 35
      vertex 0 3 35
    endloop
  endfacet
  facet normal -0.999365 0 0.0356202
    outer loop
      vertex 26.9822 0 48.5006
      vertex 27 3 49
      vertex 26.9822 3 48.5006
    endloop
  endfacet
  facet normal -0.999365 0 0.0356202
    outer loop
      vertex 27 3 49
      vertex 26.9822 0 48.5006
      vertex 27 0 49
    endloop
  endfacet
  facet normal 0.999365 0 -0.0356202
    outer loop
      vertex 13.0178 0 49.4994
      vertex 13 3 49
      vertex 13.0178 3 49.4994
    endloop
  endfacet
  facet normal 0.999365 0 -0.0356202
    outer loop
      vertex 13 3 49
      vertex 13.0178 0 49.4994
      vertex 13 0 49
    endloop
  endfacet
  facet normal 0.0356202 0 0.999365
    outer loop
      vertex 19.5006 3 42.0178
      vertex 20 0 42
      vertex 20 3 42
    endloop
  endfacet
  facet normal 0.0356202 0 0.999365
    outer loop
      vertex 20 0 42
      vertex 19.5006 3 42.0178
      vertex 19.5006 0 42.0178
    endloop
  endfacet
  facet normal -0.0356202 0 -0.999365
    outer loop
      vertex 20 0 56
      vertex 20.4994 3 55.9822
      vertex 20.4994 0 55.9822
    endloop
  endfacet
  facet normal -0.0356202 0 -0.999365
    outer loop
      vertex 20.4994 3 55.9822
      vertex 20 0 56
      vertex 20 3 56
    endloop
  endfacet
  facet normal -0.681441 0 0.731873
    outer loop
      vertex 24.584 3 43.7098
      vertex 24.9497 0 44.0503
      vertex 24.9497 3 44.0503
    endloop
  endfacet
  facet normal -0.681441 0 0.731873
    outer loop
      vertex 24.9497 0 44.0503
      vertex 24.584 3 43.7098
      vertex 24.584 0 43.7098
    endloop
  endfacet
  facet normal 0.731873 -0 0.681441
    outer loop
      vertex 14.7098 0 44.416
      vertex 15.0503 3 44.0503
      vertex 14.7098 3 44.416
    endloop
  endfacet
  facet normal 0.731873 0 0.681441
    outer loop
      vertex 15.0503 3 44.0503
      vertex 14.7098 0 44.416
      vertex 15.0503 0 44.0503
    endloop
  endfacet
  facet normal -0.92388 0 0.382682
    outer loop
      vertex 26.3674 0 46.0921
      vertex 26.5586 3 46.5537
      vertex 26.3674 3 46.0921
    endloop
  endfacet
  facet normal -0.92388 0 0.382682
    outer loop
      vertex 26.5586 3 46.5537
      vertex 26.3674 0 46.0921
      vertex 26.5586 0 46.5537
    endloop
  endfacet
  facet normal -0.570396 0 0.82137
    outer loop
      vertex 23.7845 3 43.1112
      vertex 24.1949 0 43.3962
      vertex 24.1949 3 43.3962
    endloop
  endfacet
  facet normal -0.570396 0 0.82137
    outer loop
      vertex 24.1949 0 43.3962
      vertex 23.7845 3 43.1112
      vertex 23.7845 0 43.1112
    endloop
  endfacet
  facet normal 0.894267 -0 0.447534
    outer loop
      vertex 13.6326 0 46.0921
      vertex 13.8562 3 45.6453
      vertex 13.6326 3 46.0921
    endloop
  endfacet
  facet normal 0.894267 0 0.447534
    outer loop
      vertex 13.8562 3 45.6453
      vertex 13.6326 0 46.0921
      vertex 13.8562 0 45.6453
    endloop
  endfacet
  facet normal 0.177494 0 0.984122
    outer loop
      vertex 18.512 3 42.16
      vertex 19.0038 0 42.0713
      vertex 19.0038 3 42.0713
    endloop
  endfacet
  facet normal 0.177494 0 0.984122
    outer loop
      vertex 19.0038 0 42.0713
      vertex 18.512 3 42.16
      vertex 18.512 0 42.16
    endloop
  endfacet
  facet normal -0.315807 0 -0.948823
    outer loop
      vertex 21.9721 0 55.7164
      vertex 22.4462 3 55.5586
      vertex 22.4462 0 55.5586
    endloop
  endfacet
  facet normal -0.315807 0 -0.948823
    outer loop
      vertex 22.4462 3 55.5586
      vertex 21.9721 0 55.7164
      vertex 21.9721 3 55.7164
    endloop
  endfacet
  facet normal -0.984122 0 0.177494
    outer loop
      vertex 26.84 0 47.512
      vertex 26.9287 3 48.0038
      vertex 26.84 3 47.512
    endloop
  endfacet
  facet normal -0.984122 0 0.177494
    outer loop
      vertex 26.9287 3 48.0038
      vertex 26.84 0 47.512
      vertex 26.9287 0 48.0038
    endloop
  endfacet
  facet normal -0.994251 0 0.10707
    outer loop
      vertex 26.9287 0 48.0038
      vertex 26.9822 3 48.5006
      vertex 26.9287 3 48.0038
    endloop
  endfacet
  facet normal -0.994251 0 0.10707
    outer loop
      vertex 26.9822 3 48.5006
      vertex 26.9287 0 48.0038
      vertex 26.9822 0 48.5006
    endloop
  endfacet
  facet normal -0.968918 0 0.247383
    outer loop
      vertex 26.7164 0 47.0279
      vertex 26.84 3 47.512
      vertex 26.7164 3 47.0279
    endloop
  endfacet
  facet normal -0.968918 0 0.247383
    outer loop
      vertex 26.84 3 47.512
      vertex 26.7164 0 47.0279
      vertex 26.84 0 47.512
    endloop
  endfacet
  facet normal -0.860025 0 0.510252
    outer loop
      vertex 25.8888 0 45.2155
      vertex 26.1438 3 45.6453
      vertex 25.8888 3 45.2155
    endloop
  endfacet
  facet normal -0.860025 0 0.510252
    outer loop
      vertex 26.1438 3 45.6453
      vertex 25.8888 0 45.2155
      vertex 26.1438 0 45.6453
    endloop
  endfacet
  facet normal -0.177494 0 0.984122
    outer loop
      vertex 20.9962 3 42.0713
      vertex 21.488 0 42.16
      vertex 21.488 3 42.16
    endloop
  endfacet
  facet normal -0.177494 0 0.984122
    outer loop
      vertex 21.488 0 42.16
      vertex 20.9962 3 42.0713
      vertex 20.9962 0 42.0713
    endloop
  endfacet
  facet normal -0.10707 0 0.994251
    outer loop
      vertex 20.4994 3 42.0178
      vertex 20.9962 0 42.0713
      vertex 20.9962 3 42.0713
    endloop
  endfacet
  facet normal -0.10707 0 0.994251
    outer loop
      vertex 20.9962 0 42.0713
      vertex 20.4994 3 42.0178
      vertex 20.4994 0 42.0178
    endloop
  endfacet
  facet normal -0.382611 0 0.92391
    outer loop
      vertex 22.4462 3 42.4414
      vertex 22.9079 0 42.6326
      vertex 22.9079 3 42.6326
    endloop
  endfacet
  facet normal -0.382611 0 0.92391
    outer loop
      vertex 22.9079 0 42.6326
      vertex 22.4462 3 42.4414
      vertex 22.4462 0 42.4414
    endloop
  endfacet
  facet normal -0.627522 0 0.778599
    outer loop
      vertex 24.1949 3 43.3962
      vertex 24.584 0 43.7098
      vertex 24.584 3 43.7098
    endloop
  endfacet
  facet normal -0.627522 0 0.778599
    outer loop
      vertex 24.584 0 43.7098
      vertex 24.1949 3 43.3962
      vertex 24.1949 0 43.3962
    endloop
  endfacet
  facet normal 0.984087 -0 0.177688
    outer loop
      vertex 13.0712 0 48.0038
      vertex 13.16 3 47.512
      vertex 13.0712 3 48.0038
    endloop
  endfacet
  facet normal 0.984087 0 0.177688
    outer loop
      vertex 13.16 3 47.512
      vertex 13.0712 0 48.0038
      vertex 13.16 0 47.512
    endloop
  endfacet
  facet normal 0.778599 -0 0.627522
    outer loop
      vertex 14.3962 0 44.8051
      vertex 14.7098 3 44.416
      vertex 14.3962 3 44.8051
    endloop
  endfacet
  facet normal 0.778599 0 0.627522
    outer loop
      vertex 14.7098 3 44.416
      vertex 14.3962 0 44.8051
      vertex 14.7098 0 44.416
    endloop
  endfacet
  facet normal 0.994273 -0 0.106872
    outer loop
      vertex 13.0178 0 48.5006
      vertex 13.0712 3 48.0038
      vertex 13.0178 3 48.5006
    endloop
  endfacet
  facet normal 0.994273 0 0.106872
    outer loop
      vertex 13.0712 3 48.0038
      vertex 13.0178 0 48.5006
      vertex 13.0712 0 48.0038
    endloop
  endfacet
  facet normal 0.570396 0 0.82137
    outer loop
      vertex 15.8051 3 43.3962
      vertex 16.2155 0 43.1112
      vertex 16.2155 3 43.1112
    endloop
  endfacet
  facet normal 0.570396 0 0.82137
    outer loop
      vertex 16.2155 0 43.1112
      vertex 15.8051 3 43.3962
      vertex 15.8051 0 43.3962
    endloop
  endfacet
  facet normal 0.447534 0 0.894267
    outer loop
      vertex 16.6453 3 42.8562
      vertex 17.0921 0 42.6326
      vertex 17.0921 3 42.6326
    endloop
  endfacet
  facet normal 0.447534 0 0.894267
    outer loop
      vertex 17.0921 0 42.6326
      vertex 16.6453 3 42.8562
      vertex 16.6453 0 42.8562
    endloop
  endfacet
  facet normal 0.681441 0 0.731873
    outer loop
      vertex 15.0503 3 44.0503
      vertex 15.416 0 43.7098
      vertex 15.416 3 43.7098
    endloop
  endfacet
  facet normal 0.681441 0 0.731873
    outer loop
      vertex 15.416 0 43.7098
      vertex 15.0503 3 44.0503
      vertex 15.0503 0 44.0503
    endloop
  endfacet
  facet normal 0.315928 0 0.948783
    outer loop
      vertex 17.5537 3 42.4414
      vertex 18.0279 0 42.2835
      vertex 18.0279 3 42.2835
    endloop
  endfacet
  facet normal 0.315928 0 0.948783
    outer loop
      vertex 18.0279 0 42.2835
      vertex 17.5537 3 42.4414
      vertex 17.5537 0 42.4414
    endloop
  endfacet
  facet normal 0.10707 0 0.994251
    outer loop
      vertex 19.0038 3 42.0713
      vertex 19.5006 0 42.0178
      vertex 19.5006 3 42.0178
    endloop
  endfacet
  facet normal 0.10707 0 0.994251
    outer loop
      vertex 19.5006 0 42.0178
      vertex 19.0038 3 42.0713
      vertex 19.0038 0 42.0713
    endloop
  endfacet
  facet normal -0.994251 0 -0.10707
    outer loop
      vertex 26.9822 0 49.4994
      vertex 26.9287 3 49.9962
      vertex 26.9822 3 49.4994
    endloop
  endfacet
  facet normal -0.994251 -0 -0.10707
    outer loop
      vertex 26.9287 3 49.9962
      vertex 26.9822 0 49.4994
      vertex 26.9287 0 49.9962
    endloop
  endfacet
  facet normal -0.731873 0 -0.681441
    outer loop
      vertex 25.2902 0 53.584
      vertex 24.9497 3 53.9497
      vertex 25.2902 3 53.584
    endloop
  endfacet
  facet normal -0.731873 -0 -0.681441
    outer loop
      vertex 24.9497 3 53.9497
      vertex 25.2902 0 53.584
      vertex 24.9497 0 53.9497
    endloop
  endfacet
  facet normal 0.315748 0 -0.948843
    outer loop
      vertex 17.5537 0 55.5586
      vertex 18.0279 3 55.7164
      vertex 18.0279 0 55.7164
    endloop
  endfacet
  facet normal 0.315748 0 -0.948843
    outer loop
      vertex 18.0279 3 55.7164
      vertex 17.5537 0 55.5586
      vertex 17.5537 3 55.5586
    endloop
  endfacet
  facet normal 0.778599 0 -0.627522
    outer loop
      vertex 14.7098 0 53.584
      vertex 14.3962 3 53.1949
      vertex 14.7098 3 53.584
    endloop
  endfacet
  facet normal 0.778599 0 -0.627522
    outer loop
      vertex 14.3962 3 53.1949
      vertex 14.7098 0 53.584
      vertex 14.3962 0 53.1949
    endloop
  endfacet
  facet normal -0.10707 0 -0.994251
    outer loop
      vertex 20.4994 0 55.9822
      vertex 20.9962 3 55.9287
      vertex 20.9962 0 55.9287
    endloop
  endfacet
  facet normal -0.10707 0 -0.994251
    outer loop
      vertex 20.9962 3 55.9287
      vertex 20.4994 0 55.9822
      vertex 20.4994 3 55.9822
    endloop
  endfacet
  facet normal -0.247383 0 -0.968918
    outer loop
      vertex 21.488 0 55.84
      vertex 21.9721 3 55.7164
      vertex 21.9721 0 55.7164
    endloop
  endfacet
  facet normal -0.247383 0 -0.968918
    outer loop
      vertex 21.9721 3 55.7164
      vertex 21.488 0 55.84
      vertex 21.488 3 55.84
    endloop
  endfacet
  facet normal -0.731873 0 0.681441
    outer loop
      vertex 24.9497 0 44.0503
      vertex 25.2902 3 44.416
      vertex 24.9497 3 44.0503
    endloop
  endfacet
  facet normal -0.731873 0 0.681441
    outer loop
      vertex 25.2902 3 44.416
      vertex 24.9497 0 44.0503
      vertex 25.2902 0 44.416
    endloop
  endfacet
  facet normal -0.82137 0 0.570396
    outer loop
      vertex 25.6038 0 44.8051
      vertex 25.8888 3 45.2155
      vertex 25.6038 3 44.8051
    endloop
  endfacet
  facet normal -0.82137 0 0.570396
    outer loop
      vertex 25.8888 3 45.2155
      vertex 25.6038 0 44.8051
      vertex 25.8888 0 45.2155
    endloop
  endfacet
  facet normal -0.894267 0 0.447534
    outer loop
      vertex 26.1438 0 45.6453
      vertex 26.3674 3 46.0921
      vertex 26.1438 3 45.6453
    endloop
  endfacet
  facet normal -0.894267 0 0.447534
    outer loop
      vertex 26.3674 3 46.0921
      vertex 26.1438 0 45.6453
      vertex 26.3674 0 46.0921
    endloop
  endfacet
  facet normal -0.247195 0 0.968966
    outer loop
      vertex 21.488 3 42.16
      vertex 21.9721 0 42.2835
      vertex 21.9721 3 42.2835
    endloop
  endfacet
  facet normal -0.247195 0 0.968966
    outer loop
      vertex 21.9721 0 42.2835
      vertex 21.488 3 42.16
      vertex 21.488 0 42.16
    endloop
  endfacet
  facet normal -0.0356202 0 0.999365
    outer loop
      vertex 20 3 42
      vertex 20.4994 0 42.0178
      vertex 20.4994 3 42.0178
    endloop
  endfacet
  facet normal -0.0356202 0 0.999365
    outer loop
      vertex 20.4994 0 42.0178
      vertex 20 3 42
      vertex 20 0 42
    endloop
  endfacet
  facet normal -0.315988 0 0.948763
    outer loop
      vertex 21.9721 3 42.2835
      vertex 22.4462 0 42.4414
      vertex 22.4462 3 42.4414
    endloop
  endfacet
  facet normal -0.315988 0 0.948763
    outer loop
      vertex 22.4462 0 42.4414
      vertex 21.9721 3 42.2835
      vertex 21.9721 0 42.2835
    endloop
  endfacet
  facet normal -0.447534 0 0.894267
    outer loop
      vertex 22.9079 3 42.6326
      vertex 23.3547 0 42.8562
      vertex 23.3547 3 42.8562
    endloop
  endfacet
  facet normal -0.447534 0 0.894267
    outer loop
      vertex 23.3547 0 42.8562
      vertex 22.9079 3 42.6326
      vertex 22.9079 0 42.6326
    endloop
  endfacet
  facet normal -0.510252 0 0.860025
    outer loop
      vertex 23.3547 3 42.8562
      vertex 23.7845 0 43.1112
      vertex 23.7845 3 43.1112
    endloop
  endfacet
  facet normal -0.510252 0 0.860025
    outer loop
      vertex 23.7845 0 43.1112
      vertex 23.3547 3 42.8562
      vertex 23.3547 0 42.8562
    endloop
  endfacet
  facet normal 0.948783 -0 0.315928
    outer loop
      vertex 13.2835 0 47.0279
      vertex 13.4414 3 46.5537
      vertex 13.2835 3 47.0279
    endloop
  endfacet
  facet normal 0.948783 0 0.315928
    outer loop
      vertex 13.4414 3 46.5537
      vertex 13.2835 0 47.0279
      vertex 13.4414 0 46.5537
    endloop
  endfacet
  facet normal 0.968966 -0 0.247195
    outer loop
      vertex 13.16 0 47.512
      vertex 13.2835 3 47.0279
      vertex 13.16 3 47.512
    endloop
  endfacet
  facet normal 0.968966 0 0.247195
    outer loop
      vertex 13.2835 3 47.0279
      vertex 13.16 0 47.512
      vertex 13.2835 0 47.0279
    endloop
  endfacet
  facet normal 0.999365 -0 0.0356202
    outer loop
      vertex 13 0 49
      vertex 13.0178 3 48.5006
      vertex 13 3 49
    endloop
  endfacet
  facet normal 0.999365 0 0.0356202
    outer loop
      vertex 13.0178 3 48.5006
      vertex 13 0 49
      vertex 13.0178 0 48.5006
    endloop
  endfacet
  facet normal 0.510252 0 0.860025
    outer loop
      vertex 16.2155 3 43.1112
      vertex 16.6453 0 42.8562
      vertex 16.6453 3 42.8562
    endloop
  endfacet
  facet normal 0.510252 0 0.860025
    outer loop
      vertex 16.6453 0 42.8562
      vertex 16.2155 3 43.1112
      vertex 16.2155 0 43.1112
    endloop
  endfacet
  facet normal 0.627522 0 0.778599
    outer loop
      vertex 15.416 3 43.7098
      vertex 15.8051 0 43.3962
      vertex 15.8051 3 43.3962
    endloop
  endfacet
  facet normal 0.627522 0 0.778599
    outer loop
      vertex 15.8051 0 43.3962
      vertex 15.416 3 43.7098
      vertex 15.416 0 43.7098
    endloop
  endfacet
  facet normal 0.382682 0 0.92388
    outer loop
      vertex 17.0921 3 42.6326
      vertex 17.5537 0 42.4414
      vertex 17.5537 3 42.4414
    endloop
  endfacet
  facet normal 0.382682 0 0.92388
    outer loop
      vertex 17.5537 0 42.4414
      vertex 17.0921 3 42.6326
      vertex 17.0921 0 42.6326
    endloop
  endfacet
  facet normal 0.247195 0 0.968966
    outer loop
      vertex 18.0279 3 42.2835
      vertex 18.512 0 42.16
      vertex 18.512 3 42.16
    endloop
  endfacet
  facet normal 0.247195 0 0.968966
    outer loop
      vertex 18.512 0 42.16
      vertex 18.0279 3 42.2835
      vertex 18.0279 0 42.2835
    endloop
  endfacet
  facet normal -0.999365 0 -0.0356202
    outer loop
      vertex 27 0 49
      vertex 26.9822 3 49.4994
      vertex 27 3 49
    endloop
  endfacet
  facet normal -0.999365 -0 -0.0356202
    outer loop
      vertex 26.9822 3 49.4994
      vertex 27 0 49
      vertex 26.9822 0 49.4994
    endloop
  endfacet
  facet normal -0.968918 0 -0.247383
    outer loop
      vertex 26.84 0 50.488
      vertex 26.7164 3 50.9721
      vertex 26.84 3 50.488
    endloop
  endfacet
  facet normal -0.968918 -0 -0.247383
    outer loop
      vertex 26.7164 3 50.9721
      vertex 26.84 0 50.488
      vertex 26.7164 0 50.9721
    endloop
  endfacet
  facet normal -0.984122 0 -0.177494
    outer loop
      vertex 26.9287 0 49.9962
      vertex 26.84 3 50.488
      vertex 26.9287 3 49.9962
    endloop
  endfacet
  facet normal -0.984122 -0 -0.177494
    outer loop
      vertex 26.84 3 50.488
      vertex 26.9287 0 49.9962
      vertex 26.84 0 50.488
    endloop
  endfacet
  facet normal -0.778599 0 -0.627522
    outer loop
      vertex 25.6038 0 53.1949
      vertex 25.2902 3 53.584
      vertex 25.6038 3 53.1949
    endloop
  endfacet
  facet normal -0.778599 -0 -0.627522
    outer loop
      vertex 25.2902 3 53.584
      vertex 25.6038 0 53.1949
      vertex 25.2902 0 53.584
    endloop
  endfacet
  facet normal -0.894267 0 -0.447534
    outer loop
      vertex 26.3674 0 51.9079
      vertex 26.1438 3 52.3547
      vertex 26.3674 3 51.9079
    endloop
  endfacet
  facet normal -0.894267 -0 -0.447534
    outer loop
      vertex 26.1438 3 52.3547
      vertex 26.3674 0 51.9079
      vertex 26.1438 0 52.3547
    endloop
  endfacet
  facet normal 0.247383 0 -0.968918
    outer loop
      vertex 18.0279 0 55.7164
      vertex 18.512 3 55.84
      vertex 18.512 0 55.84
    endloop
  endfacet
  facet normal 0.247383 0 -0.968918
    outer loop
      vertex 18.512 3 55.84
      vertex 18.0279 0 55.7164
      vertex 18.0279 3 55.7164
    endloop
  endfacet
  facet normal 0.894267 0 -0.447534
    outer loop
      vertex 13.8562 0 52.3547
      vertex 13.6326 3 51.9079
      vertex 13.8562 3 52.3547
    endloop
  endfacet
  facet normal 0.894267 0 -0.447534
    outer loop
      vertex 13.6326 3 51.9079
      vertex 13.8562 0 52.3547
      vertex 13.6326 0 51.9079
    endloop
  endfacet
  facet normal 0.968966 0 -0.247195
    outer loop
      vertex 13.2835 0 50.9721
      vertex 13.16 3 50.488
      vertex 13.2835 3 50.9721
    endloop
  endfacet
  facet normal 0.968966 0 -0.247195
    outer loop
      vertex 13.16 3 50.488
      vertex 13.2835 0 50.9721
      vertex 13.16 0 50.488
    endloop
  endfacet
  facet normal 0.92388 0 -0.382682
    outer loop
      vertex 13.6326 0 51.9079
      vertex 13.4414 3 51.4463
      vertex 13.6326 3 51.9079
    endloop
  endfacet
  facet normal 0.92388 0 -0.382682
    outer loop
      vertex 13.4414 3 51.4463
      vertex 13.6326 0 51.9079
      vertex 13.4414 0 51.4463
    endloop
  endfacet
  facet normal 0.994273 0 -0.106872
    outer loop
      vertex 13.0712 0 49.9962
      vertex 13.0178 3 49.4994
      vertex 13.0712 3 49.9962
    endloop
  endfacet
  facet normal 0.994273 0 -0.106872
    outer loop
      vertex 13.0178 3 49.4994
      vertex 13.0712 0 49.9962
      vertex 13.0178 0 49.4994
    endloop
  endfacet
  facet normal -0.382611 0 -0.92391
    outer loop
      vertex 22.4462 0 55.5586
      vertex 22.9079 3 55.3674
      vertex 22.9079 0 55.3674
    endloop
  endfacet
  facet normal -0.382611 0 -0.92391
    outer loop
      vertex 22.9079 3 55.3674
      vertex 22.4462 0 55.5586
      vertex 22.4462 3 55.5586
    endloop
  endfacet
  facet normal -0.177494 0 -0.984122
    outer loop
      vertex 20.9962 0 55.9287
      vertex 21.488 3 55.84
      vertex 21.488 0 55.84
    endloop
  endfacet
  facet normal -0.177494 0 -0.984122
    outer loop
      vertex 21.488 3 55.84
      vertex 20.9962 0 55.9287
      vertex 20.9962 3 55.9287
    endloop
  endfacet
  facet normal -0.948843 0 0.315748
    outer loop
      vertex 26.5586 0 46.5537
      vertex 26.7164 3 47.0279
      vertex 26.5586 3 46.5537
    endloop
  endfacet
  facet normal -0.948843 0 0.315748
    outer loop
      vertex 26.7164 3 47.0279
      vertex 26.5586 0 46.5537
      vertex 26.7164 0 47.0279
    endloop
  endfacet
  facet normal -0.778599 0 0.627522
    outer loop
      vertex 25.2902 0 44.416
      vertex 25.6038 3 44.8051
      vertex 25.2902 3 44.416
    endloop
  endfacet
  facet normal -0.778599 0 0.627522
    outer loop
      vertex 25.6038 3 44.8051
      vertex 25.2902 0 44.416
      vertex 25.6038 0 44.8051
    endloop
  endfacet
  facet normal 0.860025 -0 0.510252
    outer loop
      vertex 13.8562 0 45.6453
      vertex 14.1112 3 45.2155
      vertex 13.8562 3 45.6453
    endloop
  endfacet
  facet normal 0.860025 0 0.510252
    outer loop
      vertex 14.1112 3 45.2155
      vertex 13.8562 0 45.6453
      vertex 14.1112 0 45.2155
    endloop
  endfacet
  facet normal 0.82137 -0 0.570396
    outer loop
      vertex 14.1112 0 45.2155
      vertex 14.3962 3 44.8051
      vertex 14.1112 3 45.2155
    endloop
  endfacet
  facet normal 0.82137 0 0.570396
    outer loop
      vertex 14.3962 3 44.8051
      vertex 14.1112 0 45.2155
      vertex 14.3962 0 44.8051
    endloop
  endfacet
  facet normal 0.92388 -0 0.382682
    outer loop
      vertex 13.4414 0 46.5537
      vertex 13.6326 3 46.0921
      vertex 13.4414 3 46.5537
    endloop
  endfacet
  facet normal 0.92388 0 0.382682
    outer loop
      vertex 13.6326 3 46.0921
      vertex 13.4414 0 46.5537
      vertex 13.6326 0 46.0921
    endloop
  endfacet
  facet normal -0.82137 0 -0.570396
    outer loop
      vertex 25.8888 0 52.7845
      vertex 25.6038 3 53.1949
      vertex 25.8888 3 52.7845
    endloop
  endfacet
  facet normal -0.82137 -0 -0.570396
    outer loop
      vertex 25.6038 3 53.1949
      vertex 25.8888 0 52.7845
      vertex 25.6038 0 53.1949
    endloop
  endfacet
  facet normal -0.860025 0 -0.510252
    outer loop
      vertex 26.1438 0 52.3547
      vertex 25.8888 3 52.7845
      vertex 26.1438 3 52.3547
    endloop
  endfacet
  facet normal -0.860025 -0 -0.510252
    outer loop
      vertex 25.8888 3 52.7845
      vertex 26.1438 0 52.3547
      vertex 25.8888 0 52.7845
    endloop
  endfacet
  facet normal -0.447534 0 -0.894267
    outer loop
      vertex 22.9079 0 55.3674
      vertex 23.3547 3 55.1438
      vertex 23.3547 0 55.1438
    endloop
  endfacet
  facet normal -0.447534 0 -0.894267
    outer loop
      vertex 23.3547 3 55.1438
      vertex 22.9079 0 55.3674
      vertex 22.9079 3 55.3674
    endloop
  endfacet
  facet normal -0.948843 0 -0.315748
    outer loop
      vertex 26.7164 0 50.9721
      vertex 26.5586 3 51.4463
      vertex 26.7164 3 50.9721
    endloop
  endfacet
  facet normal -0.948843 -0 -0.315748
    outer loop
      vertex 26.5586 3 51.4463
      vertex 26.7164 0 50.9721
      vertex 26.5586 0 51.4463
    endloop
  endfacet
  facet normal -0.92388 0 -0.382682
    outer loop
      vertex 26.5586 0 51.4463
      vertex 26.3674 3 51.9079
      vertex 26.5586 3 51.4463
    endloop
  endfacet
  facet normal -0.92388 -0 -0.382682
    outer loop
      vertex 26.3674 3 51.9079
      vertex 26.5586 0 51.4463
      vertex 26.3674 0 51.9079
    endloop
  endfacet
  facet normal 0.681441 0 -0.731873
    outer loop
      vertex 15.0503 0 53.9497
      vertex 15.416 3 54.2902
      vertex 15.416 0 54.2902
    endloop
  endfacet
  facet normal 0.681441 0 -0.731873
    outer loop
      vertex 15.416 3 54.2902
      vertex 15.0503 0 53.9497
      vertex 15.0503 3 53.9497
    endloop
  endfacet
  facet normal 0.860025 0 -0.510252
    outer loop
      vertex 14.1112 0 52.7845
      vertex 13.8562 3 52.3547
      vertex 14.1112 3 52.7845
    endloop
  endfacet
  facet normal 0.860025 0 -0.510252
    outer loop
      vertex 13.8562 3 52.3547
      vertex 14.1112 0 52.7845
      vertex 13.8562 0 52.3547
    endloop
  endfacet
  facet normal 0.82137 0 -0.570396
    outer loop
      vertex 14.3962 0 53.1949
      vertex 14.1112 3 52.7845
      vertex 14.3962 3 53.1949
    endloop
  endfacet
  facet normal 0.82137 0 -0.570396
    outer loop
      vertex 14.1112 3 52.7845
      vertex 14.3962 0 53.1949
      vertex 14.1112 0 52.7845
    endloop
  endfacet
  facet normal 0.948783 0 -0.315928
    outer loop
      vertex 13.4414 0 51.4463
      vertex 13.2835 3 50.9721
      vertex 13.4414 3 51.4463
    endloop
  endfacet
  facet normal 0.948783 0 -0.315928
    outer loop
      vertex 13.2835 3 50.9721
      vertex 13.4414 0 51.4463
      vertex 13.2835 0 50.9721
    endloop
  endfacet
  facet normal 0.984087 0 -0.177688
    outer loop
      vertex 13.16 0 50.488
      vertex 13.0712 3 49.9962
      vertex 13.16 3 50.488
    endloop
  endfacet
  facet normal 0.984087 0 -0.177688
    outer loop
      vertex 13.0712 3 49.9962
      vertex 13.16 0 50.488
      vertex 13.0712 0 49.9962
    endloop
  endfacet
  facet normal -0.681441 0 -0.731873
    outer loop
      vertex 24.584 0 54.2902
      vertex 24.9497 3 53.9497
      vertex 24.9497 0 53.9497
    endloop
  endfacet
  facet normal -0.681441 0 -0.731873
    outer loop
      vertex 24.9497 3 53.9497
      vertex 24.584 0 54.2902
      vertex 24.584 3 54.2902
    endloop
  endfacet
  facet normal -0.627522 0 -0.778599
    outer loop
      vertex 24.1949 0 54.6038
      vertex 24.584 3 54.2902
      vertex 24.584 0 54.2902
    endloop
  endfacet
  facet normal -0.627522 0 -0.778599
    outer loop
      vertex 24.584 3 54.2902
      vertex 24.1949 0 54.6038
      vertex 24.1949 3 54.6038
    endloop
  endfacet
  facet normal 0.0356202 0 -0.999365
    outer loop
      vertex 19.5006 0 55.9822
      vertex 20 3 56
      vertex 20 0 56
    endloop
  endfacet
  facet normal 0.0356202 0 -0.999365
    outer loop
      vertex 20 3 56
      vertex 19.5006 0 55.9822
      vertex 19.5006 3 55.9822
    endloop
  endfacet
  facet normal 0.627522 0 -0.778599
    outer loop
      vertex 15.416 0 54.2902
      vertex 15.8051 3 54.6038
      vertex 15.8051 0 54.6038
    endloop
  endfacet
  facet normal 0.627522 0 -0.778599
    outer loop
      vertex 15.8051 3 54.6038
      vertex 15.416 0 54.2902
      vertex 15.416 3 54.2902
    endloop
  endfacet
  facet normal 0.177494 0 -0.984122
    outer loop
      vertex 18.512 0 55.84
      vertex 19.0038 3 55.9287
      vertex 19.0038 0 55.9287
    endloop
  endfacet
  facet normal 0.177494 0 -0.984122
    outer loop
      vertex 19.0038 3 55.9287
      vertex 18.512 0 55.84
      vertex 18.512 3 55.84
    endloop
  endfacet
  facet normal 0.10707 0 -0.994251
    outer loop
      vertex 19.0038 0 55.9287
      vertex 19.5006 3 55.9822
      vertex 19.5006 0 55.9822
    endloop
  endfacet
  facet normal 0.10707 0 -0.994251
    outer loop
      vertex 19.5006 3 55.9822
      vertex 19.0038 0 55.9287
      vertex 19.0038 3 55.9287
    endloop
  endfacet
  facet normal 0.731873 0 -0.681441
    outer loop
      vertex 15.0503 0 53.9497
      vertex 14.7098 3 53.584
      vertex 15.0503 3 53.9497
    endloop
  endfacet
  facet normal 0.731873 0 -0.681441
    outer loop
      vertex 14.7098 3 53.584
      vertex 15.0503 0 53.9497
      vertex 14.7098 0 53.584
    endloop
  endfacet
  facet normal -0.570396 0 -0.82137
    outer loop
      vertex 23.7845 0 54.8888
      vertex 24.1949 3 54.6038
      vertex 24.1949 0 54.6038
    endloop
  endfacet
  facet normal -0.570396 0 -0.82137
    outer loop
      vertex 24.1949 3 54.6038
      vertex 23.7845 0 54.8888
      vertex 23.7845 3 54.8888
    endloop
  endfacet
  facet normal -0.510252 0 -0.860025
    outer loop
      vertex 23.3547 0 55.1438
      vertex 23.7845 3 54.8888
      vertex 23.7845 0 54.8888
    endloop
  endfacet
  facet normal -0.510252 0 -0.860025
    outer loop
      vertex 23.7845 3 54.8888
      vertex 23.3547 0 55.1438
      vertex 23.3547 3 55.1438
    endloop
  endfacet
  facet normal 0.382682 0 -0.92388
    outer loop
      vertex 17.0921 0 55.3674
      vertex 17.5537 3 55.5586
      vertex 17.5537 0 55.5586
    endloop
  endfacet
  facet normal 0.382682 0 -0.92388
    outer loop
      vertex 17.5537 3 55.5586
      vertex 17.0921 0 55.3674
      vertex 17.0921 3 55.3674
    endloop
  endfacet
  facet normal 0.510252 0 -0.860025
    outer loop
      vertex 16.2155 0 54.8888
      vertex 16.6453 3 55.1438
      vertex 16.6453 0 55.1438
    endloop
  endfacet
  facet normal 0.510252 0 -0.860025
    outer loop
      vertex 16.6453 3 55.1438
      vertex 16.2155 0 54.8888
      vertex 16.2155 3 54.8888
    endloop
  endfacet
  facet normal 0.570396 0 -0.82137
    outer loop
      vertex 15.8051 0 54.6038
      vertex 16.2155 3 54.8888
      vertex 16.2155 0 54.8888
    endloop
  endfacet
  facet normal 0.570396 0 -0.82137
    outer loop
      vertex 16.2155 3 54.8888
      vertex 15.8051 0 54.6038
      vertex 15.8051 3 54.6038
    endloop
  endfacet
  facet normal 0.447534 0 -0.894267
    outer loop
      vertex 16.6453 0 55.1438
      vertex 17.0921 3 55.3674
      vertex 17.0921 0 55.3674
    endloop
  endfacet
  facet normal 0.447534 0 -0.894267
    outer loop
      vertex 17.0921 3 55.3674
      vertex 16.6453 0 55.1438
      vertex 16.6453 3 55.1438
    endloop
  endfacet
endsolid OpenSCAD_Model
